<svg width="130" height="25" viewBox="0 0 130 25" fill="none" xmlns="http://www.w3.org/2000/svg">
<path fill-rule="evenodd" clip-rule="evenodd" d="M4.75437 15.977C4.75437 15.977 4.67248 15.4649 4.63213 14.5689H9.18237C14.5468 14.5689 16.2119 13.5034 16.2119 6.93245C16.2119 1.98398 14.18 0.234375 8.4513 0.234375C0 0.276744 0 5.05574 0 12.2647C0 21.2246 2.07336 24.4247 7.92316 24.4247H16.1312V19.4326H8.12611C5.22025 19.4326 5.12112 18.7171 4.80124 16.4079L4.79472 16.3609L4.75437 15.977ZM4.46973 8.59441C4.46973 5.60863 5.1201 5.01172 8.24854 5.01172C11.9051 5.01172 11.9051 5.26718 11.9051 7.65606C11.9051 8.85112 11.7841 9.36204 11.4992 9.57638C11.0933 9.91783 10.1581 9.96019 8.77667 9.96019H8.16784H4.51008C4.46973 9.70349 4.46973 9.53276 4.46973 9.31967V8.59441ZM117.387 14.5689C117.429 15.4649 117.513 15.977 117.513 15.977L117.555 16.3609L117.562 16.4051C117.894 18.7165 117.997 19.4326 121.011 19.4326H129.353V24.4247H120.841C114.775 24.4247 112.626 21.2246 112.626 12.2647C112.626 5.05574 112.626 0.276744 121.39 0.276744C127.331 0.276744 129.438 2.02634 129.438 6.93245C129.438 13.5034 127.669 14.5689 122.107 14.5689H117.387ZM121.178 5.01503C117.934 5.01503 117.261 5.61193 117.261 8.59772V9.32298C117.219 9.53607 117.219 9.70679 117.219 9.9635H121.053H121.727C123.16 9.9635 124.128 9.92113 124.549 9.57969C124.845 9.36535 124.971 8.85443 124.971 7.65936C124.971 5.27049 124.971 5.01503 121.178 5.01503ZM60.1735 14.7154C60.2149 15.6059 60.2988 16.1149 60.2988 16.1149L60.3402 16.4964C60.6321 18.8285 60.7562 19.5494 63.7131 19.5072H71.9174V24.4688H63.5051C57.5085 24.4688 55.3848 21.2882 55.3848 12.3833C55.3848 5.21847 55.3848 0.46875 64.0464 0.46875C69.9177 0.46875 72.0001 2.20763 72.0001 7.12578C72.0001 13.6565 70.2924 14.7154 64.7957 14.7154H60.1735ZM63.8798 5.21847C60.6735 5.21847 60.0069 5.81172 60.0069 8.77921V9.50002C60.0069 9.71181 60.0069 9.88149 60.0483 10.1366H63.7958H64.4211C65.8369 10.1366 66.7954 10.0945 67.2114 9.75516C67.5033 9.54213 67.6274 9.03434 67.6274 7.8466C67.6274 5.47236 67.6274 5.21847 63.8798 5.21847ZM24.8942 8.70987C24.2054 8.45552 24.0331 8.28429 24.0331 7.35124C24.0331 5.94918 24.8075 5.14145 26.1839 5.14145H34.6183L37.8463 0.46875H26.8727C21.709 0.46875 19.3848 2.6773 19.3848 7.77558C19.3848 10.4085 20.0736 11.7683 21.7944 12.7026L29.8857 15.8889C31.0899 16.2711 31.1767 16.3989 31.1767 17.3753C31.1767 18.7774 30.4011 19.4995 29.0247 19.4995H19.601V24.4688H28.3798C33.5436 24.4688 35.8678 22.1336 35.8678 17.0776C35.8238 13.0848 34.1884 12.1927 31.736 11.3862L24.8942 8.70987ZM98.9459 7.35124C98.9459 8.28429 99.1218 8.45552 99.8254 8.70987L106.814 11.3862C109.319 12.1927 110.989 13.0848 110.989 17.0776C110.989 22.1336 108.615 24.4688 103.341 24.4688H94.7256V19.4995H104.001C105.407 19.4995 106.199 18.7774 106.199 17.3753C106.199 16.3989 106.11 16.2711 104.88 15.8889L96.6156 12.7026C94.8579 11.7683 94.1543 10.4085 94.1543 7.77558C94.1543 2.6773 96.5283 0.46875 101.803 0.46875H113.539L110.242 5.14145H101.143C99.3413 5.14145 98.9459 6.37352 98.9459 7.35124ZM42.43 8.70987C41.7469 8.45552 41.5758 8.28429 41.5758 7.35124C41.5758 5.94918 42.3451 5.14145 43.7137 5.14145H52.178L55.3848 0.46875H44.3968C39.2668 0.46875 36.9591 2.6773 36.9591 7.77558C36.9591 10.4085 37.6421 11.7683 39.353 12.7026L47.3901 15.8889C48.5877 16.2711 48.6726 16.3989 48.6726 17.3753C48.6726 18.7774 47.9034 19.4995 46.5347 19.4995H37.6421L35.0771 24.4688H45.8929C51.0241 24.4688 53.3318 22.1336 53.3318 17.0776C53.3318 13.0848 51.7084 12.1927 49.2708 11.3862L42.43 8.70987ZM74.7695 24.4688V0.46875H85.4907C90.3841 0.46875 93.1856 3.39942 93.2311 8.45552V24.4688H88.3818V9.68635C88.3818 5.69359 86.4691 5.18363 84.9125 5.18363H79.6188V24.4688H74.7695Z" fill="#579B7A"/>
</svg>
