<?xml version="1.0" encoding="utf-8"?>
<!-- Generator: Adobe Illustrator 19.2.1, SVG Export Plug-In . SVG Version: 6.00 Build 0)  -->
<svg version="1.1" id="layer" xmlns="http://www.w3.org/2000/svg" xmlns:xlink="http://www.w3.org/1999/xlink" x="0px" y="0px"
	 viewBox="0 0 652 652" style="enable-background:new 0 0 652 652;" xml:space="preserve">
<style type="text/css">
	.st0{fill:#812926;}
	.st1{fill:#FFFFFF;}
</style>
<g transform="translate(4323 30)">
	<rect x="-4253" y="42" class="st0" width="500" height="500"/>
	<path class="st1" d="M-4188,321.4h31.1v54.2h46.3v-54.2h31.1v133.9h-31.1v-53.1h-46.3v53.1h-31.1V321.4z"/>
	<path class="st1" d="M-4052.1,410.1v-88.7h30.8v86.7c-1.2,12,7.6,22.7,19.6,23.9c1.2,0.1,2.4,0.1,3.6,0.1c14.1,0,23.2-8.5,23.2-24
		v-86.7h31.1v88.7c0,31.1-21.2,48.9-54.2,48.9C-4031.2,458.9-4052.1,441.2-4052.1,410.1z"/>
	<path class="st1" d="M-3816.3,418.3c0,22.9-16.4,37-42.9,37h-57.1V321.4h55.1c26.6,0,42.9,13.3,42.9,34.7
		c1,15.4-10.4,28.9-25.7,30.5C-3827.7,387.9-3815.3,401.9-3816.3,418.3z M-3885.5,343.7v32.5h17.2c11.9,0,18.9-6.2,18.9-16.4
		s-6.8-16.4-18.9-16.4h-17.2V343.7z M-3847.4,414c0-9.9-7.3-16.4-18.6-16.4h-19.2v34.2h19.2c9.3,1,17.6-5.7,18.6-15
		C-3847.3,415.9-3847.3,415-3847.4,414L-3847.4,414z"/>
	<path class="st1" d="M-4188,238.9h17.8v59.9h-17.8V238.9z"/>
	<path class="st1" d="M-4152.1,238.9h22.6l12.7,39l12.7-39h22v59.9h-16.9v-38.1l-11,37.8h-13.3l-11.6-38.1v38.1h-16.9v-59.6H-4152.1
		z"/>
	<path class="st1" d="M-4012.9,261.2c0.4,12-9,22-21,22.3c-0.4,0-0.9,0-1.3,0h-11v15.3h-17.8v-59.9h28.8c12-0.4,22,9,22.3,21
		C-4012.9,260.3-4012.9,260.8-4012.9,261.2z M-4031,261.2c0.2-4.4-3.2-8.2-7.6-8.5c-0.1,0-0.2,0-0.3,0h-7.3v16.9h7.3
		C-4034.4,269.5-4030.8,265.7-4031,261.2z"/>
	<path class="st1" d="M-3969.4,291.7h-19.2l-2,6.8h-18.4l20.3-59.9h19.2l20.3,59.9h-18.4L-3969.4,291.7z M-3972.8,278.7l-6.2-23.2
		l-6.2,23.1L-3972.8,278.7L-3972.8,278.7z"/>
	<path class="st1" d="M-3942,268.5c-0.4-17.1,13.1-31.3,30.2-31.7c1,0,1.9,0,2.9,0.1c18.6,0,30.8,9,32.2,24.9h-18.6
		c-1.6-5.9-7.2-9.8-13.3-9c-8.9,0.8-15.5,8.7-14.6,17.6c0.7,7.8,6.9,13.9,14.6,14.6c6.1,0.7,11.7-3.1,13.3-9h18.6
		c-1.4,15.8-13.6,24.9-32.2,24.9c-17.4,0.8-32.2-12.6-33-30C-3942,270-3942,269.3-3942,268.5z"/>
	<path class="st1" d="M-3851.3,254.1h-15.3v-15.3h48.6v15.3h-15.3v44.4h-17.8v-44.4H-3851.3z"/>
</g>
</svg>
