<?xml version="1.0" encoding="UTF-8"?>
<svg class="ionicon" version="1.1" viewBox="0 0 512 512" xmlns="http://www.w3.org/2000/svg">
 <path d="m174.4 359.85a7.4181 7.4181 0 0 1-7.4182-7.4181v-183.54a11.127 11.127 0 0 1 5.5172-9.6065c5.61-3.2594 16.913-7.1446 38.992-7.1446 17.252 0 36.548 6.8201 53.573 12.833 13.71 4.845 26.659 9.421 35.445 9.421a85.235 85.235 0 0 0 32.918-6.7227 8.3454 8.3454 0 0 1 11.591 7.6871v101.7a9.2727 9.2727 0 0 1-5.5636 8.4891c-4.0383 1.7664-18.782 7.5341-38.945 7.5341-11.192 0-25.212-3.3103-40.053-6.8201-16.682-3.9409-33.929-8.0162-48.964-8.0162-17.094 0-25.843 2.5871-29.673 4.2237v69.958a7.4181 7.4181 0 0 1-7.4182 7.4181z" stroke-width=".46363"/>
</svg>
