<?xml version="1.0" encoding="UTF-8" standalone="no"?>
<!DOCTYPE svg PUBLIC "-//W3C//DTD SVG 1.1//EN" "http://www.w3.org/Graphics/SVG/1.1/DTD/svg11.dtd">
<!-- Created with Vectornator (http://vectornator.io/) -->
<svg height="100%" stroke-miterlimit="10" style="fill-rule:nonzero;clip-rule:evenodd;stroke-linecap:round;stroke-linejoin:round;" version="1.1" viewBox="0 0 32 32" width="100%" xml:space="preserve" xmlns="http://www.w3.org/2000/svg" xmlns:vectornator="http://vectornator.io" xmlns:xlink="http://www.w3.org/1999/xlink">
<defs/>
<g id="Untitled" vectornator:layerName="Untitled">
<g opacity="1" vectornator:layerName="g">
<path d="M29.0462 16C28.8 20.9231 26.7077 24.8615 22.2769 27.3231C20.0615 28.5538 17.7231 29.0462 15.1385 28.9231C13.0462 28.8 11.0769 28.1846 9.35385 27.0769C9.10769 27.0769 8.98462 27.0769 8.73846 27.0769C7.13846 27.4462 5.66154 27.8154 4.06154 28.1846C3.81538 28.3077 3.69231 28.1846 3.81538 27.9385C4.18462 26.3385 4.55385 24.8615 4.92308 23.2615C4.92308 23.0154 4.92308 22.8923 4.8 22.6462C0.123077 14.8923 4.8 4.67692 13.7846 3.2C20.8 1.96923 27.5692 6.64615 28.8 13.7846C28.9231 14.5231 29.0462 15.2615 29.0462 16L29.0462 16Z" fill="#ffffff" fill-rule="nonzero" opacity="1" stroke="none" vectornator:layerName="path"/>
<g opacity="1" vectornator:layerName="g">
<path d="M1.96923 31.5077C0.984615 31.5077 0.246154 30.6462 0.492308 29.7846C0.738462 28.8 0.984615 27.8154 1.23077 26.7077C1.23077 26.5846 1.35385 26.5846 1.47692 26.5846C1.84615 26.7077 2.21538 26.7077 2.58462 26.8308C2.83077 26.8308 2.70769 26.9538 2.70769 27.0769C2.58462 27.9385 2.33846 28.6769 2.09231 29.5385C1.96923 29.9077 1.96923 29.9077 2.46154 29.7846C3.32308 29.6615 4.06154 29.4154 4.92308 29.1692C5.16923 29.1692 5.16923 29.1692 5.29231 29.4154C5.29231 29.7846 5.41538 30.0308 5.53846 30.4C5.53846 30.5231 5.53846 30.6462 5.41538 30.6462C4.18462 31.0154 3.2 31.2615 1.96923 31.5077C2.09231 31.5077 2.09231 31.5077 1.96923 31.5077L1.96923 31.5077Z" fill="#ffffff" fill-rule="nonzero" opacity="1" stroke="none" vectornator:layerName="path"/>
<path d="M8.24615 30.0308C7.87692 30.1538 7.50769 30.1538 7.01538 30.2769C6.76923 30.4 6.64615 30.2769 6.64615 30.0308C6.64615 29.6615 6.52308 29.4154 6.4 29.0462C6.4 28.9231 6.4 28.8 6.52308 28.8C7.13846 28.6769 7.75385 28.5538 8.36923 28.4308C8.49231 28.4308 8.61538 28.4308 8.61538 28.4308C9.72308 29.0462 10.9538 29.5385 12.1846 29.9077C12.3077 29.9077 12.4308 30.0308 12.3077 30.1538C12.1846 30.4 12.1846 30.7692 12.0615 31.0154C12.0615 31.2615 11.9385 31.2615 11.6923 31.2615C10.5846 31.0154 9.47692 30.5231 8.49231 30.0308C8.49231 30.1538 8.49231 30.0308 8.24615 30.0308L8.24615 30.0308Z" fill="#ffffff" fill-rule="nonzero" opacity="1" stroke="none" vectornator:layerName="path"/>
<path d="M3.56923 23.5077C3.44615 24 3.32308 24.4923 3.2 25.1077C3.07692 25.7231 3.2 25.6 2.58462 25.4769C2.33846 25.4769 2.09231 25.3538 1.84615 25.3538C1.72308 25.3538 1.6 25.2308 1.72308 25.1077C1.84615 24.7385 1.84615 24.3692 1.96923 24C1.96923 23.8769 1.96923 23.7538 1.96923 23.5077C1.47692 22.5231 0.984615 21.4154 0.738462 20.3077C0.615385 19.9385 0.615385 19.9385 0.984615 19.9385C1.23077 19.8154 1.6 19.8154 1.84615 19.6923C1.96923 19.6923 2.09231 19.6923 2.09231 19.8154C2.46154 21.0462 2.95385 22.2769 3.56923 23.3846C3.44615 23.3846 3.56923 23.3846 3.56923 23.5077Z" fill="#ffffff" fill-rule="nonzero" opacity="1" stroke="none" vectornator:layerName="path"/>
<path d="M28.8 6.52308C28.8 6.64615 28.6769 6.64615 28.6769 6.64615C28.4308 6.89231 28.0615 7.01538 27.8154 7.26154C27.6923 7.38462 27.5692 7.38462 27.5692 7.26154C26.7077 6.15385 25.8462 5.29231 24.7385 4.43077C24.6154 4.30769 24.6154 4.30769 24.7385 4.18462C24.9846 3.93846 25.2308 3.56923 25.3538 3.32308C25.4769 3.2 25.4769 3.2 25.6 3.32308C26.8308 4.18462 27.8154 5.16923 28.8 6.52308C28.8 6.4 28.8 6.4 28.8 6.52308L28.8 6.52308Z" fill="#ffffff" fill-rule="nonzero" opacity="1" stroke="none" vectornator:layerName="path"/>
<path d="M19.9385 0.492308L20.0615 0.492308C21.4154 0.861538 22.7692 1.35385 24 2.09231C24.2462 2.21538 24.2462 2.33846 24.1231 2.46154C24 2.70769 23.7538 3.07692 23.6308 3.32308C23.5077 3.44615 23.5077 3.44615 23.3846 3.44615C22.2769 2.83077 21.0462 2.21538 19.6923 1.96923C19.5692 1.96923 19.4462 1.84615 19.5692 1.72308C19.6923 1.35385 19.6923 0.984615 19.8154 0.615385C19.8154 0.615385 19.8154 0.492308 19.9385 0.492308Z" fill="#ffffff" fill-rule="nonzero" opacity="1" stroke="none" vectornator:layerName="path"/>
<path d="M4.30769 7.38462C4.30769 7.38462 4.18462 7.26154 4.30769 7.38462C3.93846 7.01538 3.56923 6.89231 3.32308 6.64615C3.2 6.52308 3.2 6.4 3.32308 6.27692C3.69231 5.78462 4.18462 5.16923 4.55385 4.67692C5.16923 4.18462 5.66154 3.69231 6.27692 3.2C6.4 3.07692 6.52308 3.07692 6.64615 3.2C6.89231 3.44615 7.01538 3.81538 7.26154 4.06154C7.38462 4.30769 7.38462 4.30769 7.26154 4.43077C6.15385 5.29231 5.29231 6.15385 4.43077 7.26154C4.43077 7.26154 4.43077 7.38462 4.30769 7.38462L4.30769 7.38462Z" fill="#ffffff" fill-rule="nonzero" opacity="1" stroke="none" vectornator:layerName="path"/>
<path d="M30.2769 19.5692C30.6462 19.6923 31.0154 19.6923 31.3846 19.8154C31.5077 19.8154 31.5077 19.9385 31.5077 20.0615C31.2615 21.0462 30.8923 21.9077 30.5231 22.7692C30.2769 23.1385 30.1538 23.6308 29.9077 24C29.7846 24.1231 29.7846 24.1231 29.5385 24.1231C29.2923 24 28.9231 23.7538 28.6769 23.6308C28.5538 23.5077 28.5538 23.5077 28.5538 23.3846C29.1692 22.2769 29.7846 21.0462 30.0308 19.6923C30.0308 19.5692 30.1538 19.4462 30.2769 19.5692L30.2769 19.5692Z" fill="#ffffff" fill-rule="nonzero" opacity="1" stroke="none" vectornator:layerName="path"/>
<path d="M1.72308 12.4308C1.35385 12.3077 0.984615 12.1846 0.615385 12.1846C0.492308 12.1846 0.492308 12.0615 0.492308 11.9385C0.738462 10.8308 1.23077 9.72308 1.72308 8.73846C1.84615 8.49231 1.96923 8.24615 2.09231 8C2.33846 7.75385 2.33846 7.75385 2.46154 7.87692C2.83077 8.12308 3.07692 8.24615 3.44615 8.49231C3.56923 8.61538 3.56923 8.61538 3.44615 8.73846C2.83077 9.84615 2.21538 11.0769 1.96923 12.4308C1.96923 12.4308 1.96923 12.5538 1.72308 12.4308L1.72308 12.4308Z" fill="#ffffff" fill-rule="nonzero" opacity="1" stroke="none" vectornator:layerName="path"/>
<path d="M0 16C0 15.2615 0 14.6462 0.123077 13.9077C0.123077 13.6615 0.246154 13.6615 0.492308 13.6615C0.738462 13.6615 1.10769 13.7846 1.47692 13.7846C1.6 13.7846 1.72308 13.9077 1.72308 14.0308C1.6 15.3846 1.6 16.6154 1.72308 17.9692C1.72308 18.0923 1.72308 18.2154 1.6 18.2154C1.23077 18.2154 0.861538 18.3385 0.492308 18.3385C0.246154 18.3385 0.246154 18.2154 0.246154 18.0923C0 17.4769 0 16.7385 0 16Z" fill="#ffffff" fill-rule="nonzero" opacity="1" stroke="none" vectornator:layerName="path"/>
<path d="M31.5077 12.0615C31.5077 12.1846 31.5077 12.1846 31.3846 12.1846C31.0154 12.3077 30.6462 12.3077 30.2769 12.4308C30.0308 12.4308 30.0308 12.3077 30.0308 12.1846C29.7846 11.0769 29.2923 10.0923 28.8 9.10769C28.6769 8.98462 28.6769 8.86154 28.5538 8.61538C28.4308 8.49231 28.5538 8.49231 28.5538 8.36923C28.9231 8.12308 29.1692 8 29.5385 7.75385C29.6615 7.75385 29.6615 7.75385 29.7846 7.75385C30.5231 9.10769 31.1385 10.5846 31.5077 12.0615L31.5077 12.0615L31.5077 12.0615Z" fill="#ffffff" fill-rule="nonzero" opacity="1" stroke="none" vectornator:layerName="path"/>
<path d="M28.8 25.4769C28.8 25.4769 28.8 25.6 28.6769 25.6C27.8154 26.7077 26.7077 27.8154 25.6 28.6769C25.4769 28.8 25.3538 28.8 25.3538 28.6769C25.1077 28.4308 24.9846 28.0615 24.7385 27.8154C24.6154 27.6923 24.6154 27.5692 24.7385 27.4462C25.7231 26.7077 26.7077 25.7231 27.4462 24.7385C27.5692 24.6154 27.5692 24.6154 27.8154 24.7385C28.0615 24.9846 28.4308 25.1077 28.6769 25.3538C28.8 25.4769 28.8 25.4769 28.8 25.4769L28.8 25.4769Z" fill="#ffffff" fill-rule="nonzero" opacity="1" stroke="none" vectornator:layerName="path"/>
<path d="M16 0C16.6154 0 17.3538 0 18.0923 0.123077C18.3385 0.123077 18.3385 0.246154 18.3385 0.492308C18.3385 0.738462 18.2154 1.10769 18.2154 1.35385C18.2154 1.47692 18.0923 1.6 17.9692 1.6C16.7385 1.47692 15.3846 1.47692 14.1538 1.6C13.9077 1.6 13.9077 1.6 13.9077 1.35385C13.9077 0.984615 13.7846 0.738462 13.7846 0.369231C13.7846 0.246154 13.7846 0.123077 14.0308 0.123077C14.5231 0 15.2615 0 16 0Z" fill="#ffffff" fill-rule="nonzero" opacity="1" stroke="none" vectornator:layerName="path"/>
<path d="M16 32C15.2615 32 14.5231 32 13.7846 31.8769C13.5385 31.8769 13.5385 31.7538 13.5385 31.5077C13.5385 31.2615 13.6615 30.8923 13.6615 30.5231C13.6615 30.4 13.7846 30.2769 13.9077 30.2769C15.2615 30.4 16.4923 30.4 17.8462 30.2769C17.9692 30.2769 18.0923 30.2769 18.0923 30.5231C18.0923 30.8923 18.2154 31.2615 18.2154 31.5077C18.2154 31.7538 18.0923 31.7538 17.9692 31.7538C17.4769 32 16.7385 32 16 32L16 32Z" fill="#ffffff" fill-rule="nonzero" opacity="1" stroke="none" vectornator:layerName="path"/>
<path d="M12.0615 0.492308C12.1846 0.492308 12.1846 0.492308 12.1846 0.615385C12.3077 0.984615 12.3077 1.35385 12.4308 1.72308C12.4308 1.96923 12.3077 1.96923 12.1846 1.96923C11.0769 2.21538 9.96923 2.70769 8.98462 3.2C8.61538 3.44615 8.36923 3.44615 8.12308 3.07692C8 2.83077 8 2.70769 7.87692 2.58462C7.75385 2.33846 7.75385 2.33846 8 2.21538C8.98462 1.6 10.0923 1.10769 11.2 0.738462C11.4462 0.615385 11.6923 0.615385 12.0615 0.492308L12.0615 0.492308Z" fill="#ffffff" fill-rule="nonzero" opacity="1" stroke="none" vectornator:layerName="path"/>
<path d="M32 16C32 16.7385 32 17.3538 31.8769 18.0923C31.8769 18.3385 31.7538 18.3385 31.5077 18.3385C31.2615 18.3385 30.8923 18.2154 30.6462 18.2154C30.2769 18.2154 30.2769 18.2154 30.4 17.8462C30.5231 16.7385 30.5231 15.7538 30.4 14.6462C30.4 14.5231 30.4 14.2769 30.4 14.0308C30.4 13.9077 30.4 13.7846 30.6462 13.7846C31.0154 13.7846 31.2615 13.6615 31.6308 13.6615C31.8769 13.6615 31.8769 13.6615 31.8769 13.9077C32 14.5231 32 15.2615 32 16Z" fill="#ffffff" fill-rule="nonzero" opacity="1" stroke="none" vectornator:layerName="path"/>
<path d="M19.9385 31.5077C19.8154 31.5077 19.8154 31.5077 19.8154 31.3846C19.6923 31.0154 19.6923 30.6462 19.5692 30.2769C19.5692 30.1538 19.6923 30.0308 19.8154 30.0308C20.9231 29.7846 21.9077 29.2923 22.8923 28.8C23.0154 28.6769 23.1385 28.6769 23.3846 28.5538C23.5077 28.4308 23.5077 28.5538 23.6308 28.5538C23.8769 28.9231 24 29.1692 24.2462 29.5385C24.2462 29.6615 24.2462 29.6615 24.2462 29.7846C22.8923 30.5231 21.5385 31.1385 19.9385 31.5077L19.9385 31.5077L19.9385 31.5077Z" fill="#ffffff" fill-rule="nonzero" opacity="1" stroke="none" vectornator:layerName="path"/>
</g>
</g>
</g>
</svg>
