<?xml version="1.0" encoding="UTF-8" standalone="no"?>
<!DOCTYPE svg PUBLIC "-//W3C//DTD SVG 1.1//EN" "http://www.w3.org/Graphics/SVG/1.1/DTD/svg11.dtd">
<!-- Created with Vectornator (http://vectornator.io/) -->
<svg height="100%" stroke-miterlimit="10" style="fill-rule:nonzero;clip-rule:evenodd;stroke-linecap:round;stroke-linejoin:round;" version="1.1" viewBox="0 0 52 52" width="100%" xml:space="preserve" xmlns="http://www.w3.org/2000/svg" xmlns:vectornator="http://vectornator.io" xmlns:xlink="http://www.w3.org/1999/xlink">
<defs/>
<g id="Untitled" vectornator:layerName="Untitled">
<path d="M26 4C12.7 4 2.1 13.8 2.1 25.9C2.1 29.7 3.2 33.3 5 36.5C5.3 37 5.4 37.6 5.2 38.2L2.1 46.7C1.8 47.5 2.6 48.2 3.4 48L12 44.7C12.5 44.5 13.1 44.6 13.7 44.9C17.3 46.9 21.6 48.1 26.2 48.1C39.3 48 50 38.2 50 26.1C49.9 13.8 39.2 4 26 4ZM16.4 29.6C16.1 30.1 15.8 30.6 15.4 30.9C15 31.2 14.5 31.5 13.9 31.7C13.4 31.9 12.8 31.9 12.2 31.9C11.4 31.9 10.7 31.8 10 31.5C9.3 31.2 8.6 30.8 8.1 30.2L7.9 30C7.8 29.9 7.9 29.7 8.1 29.5L9.7 28C9.9 27.8 10.1 27.8 10.2 27.9C10.3 28 10.4 28.2 10.4 28.2C10.6 28.5 10.9 28.7 11.2 28.9C11.7 29.2 12.2 29.2 12.8 29.1C13 29.1 13.1 29 13.3 28.9C13.4 28.8 13.5 28.7 13.6 28.6C13.7 28.5 13.7 28.3 13.7 28.2C13.7 27.8 13.6 27.7 13.5 27.6C13.3 27.4 13 27.2 12.6 27.1C12.2 27 11.8 26.8 11.3 26.7C10.8 26.5 10.3 26.3 9.9 26.1C9.4 25.8 9.1 25.4 8.8 25C8.5 24.5 8.3 23.9 8.3 23.1C8.3 22.4 8.4 21.8 8.7 21.3C9 20.8 9.3 20.4 9.8 20.1C10.2 19.8 10.7 19.5 11.3 19.4C12.5 19.1 13.7 19.1 14.9 19.5C15.5 19.7 16.1 20.1 16.4 20.3L16.7 20.5C16.9 20.6 16.8 20.9 16.6 21.1L15.1 22.6C14.9 22.8 14.6 22.8 14.4 22.6C14.2 22.5 14.1 22.3 14 22.3C13.5 22 12.8 21.9 12.2 22C12 22 11.9 22.1 11.8 22.2C11.7 22.3 11.6 22.4 11.5 22.5C11.4 22.6 11.4 22.7 11.4 22.9C11.4 23.2 11.5 23.3 11.6 23.4C11.8 23.6 12.1 23.7 12.5 23.9C12.9 24 13.3 24.2 13.8 24.3C14.3 24.5 14.8 24.7 15.2 24.9C15.7 25.2 16 25.6 16.3 26C16.6 26.5 16.8 27.1 16.8 27.9C16.8 28.5 16.7 29.1 16.4 29.6ZM33 31C33 31.6 32.5 32 31.9 32L30.9 32C30.3 32 30 31.6 30 31L30 25.1C30 24.5 29.2 24.4 29 24.9L27.3 29.4C27.2 29.8 26.8 30 26.4 30L25.7 30C25.3 30 24.9 29.7 24.8 29.4L23 24.9C22.8 24.4 22 24.5 22 25.1L22 31C22 31.6 21.5 32 20.9 32L19.9 32C19.3 32 19 31.6 19 31L19 20C19 19.4 19.4 19 19.9 19L22.5 19C22.9 19 23.3 19.3 23.4 19.6L25.4 24.8C25.6 25.2 26.2 25.2 26.3 24.8L28.3 19.6C28.4 19.2 28.8 19 29.2 19L31.9 19C32.5 19 33 19.4 33 20C33 20 33 31 33 31ZM43.5 29.7C43.2 30.2 42.9 30.7 42.4 31C42 31.3 41.5 31.6 40.9 31.8C40.3 32 39.8 32 39.2 32C38.4 32 37.7 31.9 37 31.6C36.3 31.3 35.6 30.9 35.1 30.3L34.9 30.1C34.8 30 34.9 29.8 35.1 29.6L36.7 28.1C36.9 27.9 37.1 27.9 37.2 28C37.3 28.1 37.4 28.3 37.4 28.3C37.6 28.6 37.9 28.8 38.2 29C38.7 29.3 39.3 29.3 39.8 29.2C40 29.1 40.2 29.1 40.3 29C40.4 28.9 40.5 28.8 40.6 28.7C40.7 28.6 40.7 28.4 40.7 28.3C40.7 27.9 40.6 27.8 40.5 27.7C40.3 27.5 40 27.3 39.6 27.2C39.2 27.1 38.8 26.9 38.3 26.8C37.8 26.6 37.3 26.4 36.9 26.2C36.4 25.9 36 25.5 35.7 25.1C35.4 24.6 35.2 24 35.2 23.2C35.2 22.5 35.3 21.9 35.6 21.4C35.9 20.9 36.2 20.5 36.7 20.2C37.1 19.9 37.7 19.6 38.2 19.5C39.4 19.2 40.6 19.2 41.8 19.6C42.4 19.8 43 20.2 43.3 20.5L43.6 20.8C43.8 20.9 43.7 21.2 43.5 21.4L42 22.9C41.8 23.1 41.5 23.1 41.3 22.9C41.1 22.8 41 22.6 40.9 22.6C40.4 22.3 39.7 22.2 39.1 22.3C38.9 22.3 38.8 22.4 38.7 22.5C38.6 22.6 38.5 22.7 38.4 22.8C38.3 22.9 38.3 23.1 38.3 23.2C38.3 23.5 38.4 23.6 38.5 23.7C38.7 23.9 39 24 39.4 24.2C39.8 24.3 40.2 24.5 40.7 24.6C41.2 24.8 41.7 25 42.1 25.2C42.6 25.5 42.9 25.9 43.3 26.3C43.6 26.8 43.8 27.4 43.8 28.2C43.9 28.5 43.8 29.2 43.5 29.7Z" fill="#ffffff" fill-rule="nonzero" opacity="1" stroke="none" vectornator:layerName="path"/>
</g>
</svg>
