<?xml version="1.0" encoding="UTF-8" standalone="no"?>
<!DOCTYPE svg PUBLIC "-//W3C//DTD SVG 1.1//EN" "http://www.w3.org/Graphics/SVG/1.1/DTD/svg11.dtd">
<!-- Created with Vectornator (http://vectornator.io/) -->
<svg height="100%" stroke-miterlimit="10" style="fill-rule:nonzero;clip-rule:evenodd;stroke-linecap:round;stroke-linejoin:round;" version="1.1" viewBox="0 0 24 24" width="100%" xml:space="preserve" xmlns="http://www.w3.org/2000/svg" xmlns:vectornator="http://vectornator.io" xmlns:xlink="http://www.w3.org/1999/xlink">
<defs/>
<g id="Untitled" vectornator:layerName="Untitled">
<path d="M12 0C5.373 0 0 5.373 0 12C0 18.627 5.373 24 12 24C18.627 24 24 18.627 24 12C24 5.373 18.627 0 12 0ZM17.894 8.221L15.924 17.501C15.779 18.159 15.387 18.319 14.84 18.009L11.84 15.799L10.394 17.193C10.254 17.373 10.037 17.488 9.794 17.488C9.792 17.488 9.791 17.488 9.789 17.488L10.002 14.434L15.562 9.412C15.802 9.199 15.508 9.078 15.189 9.291L8.32 13.617L5.36 12.693C4.72 12.49 4.702 12.053 5.495 11.739L17.061 7.281C17.599 7.085 18.067 7.409 17.893 8.222L17.894 8.221Z" fill="#ffffff" fill-rule="nonzero" opacity="1" stroke="none" vectornator:layerName="path"/>
</g>
</svg>
