<?xml version="1.0" encoding="UTF-8" standalone="no"?>
<!DOCTYPE svg PUBLIC "-//W3C//DTD SVG 1.1//EN" "http://www.w3.org/Graphics/SVG/1.1/DTD/svg11.dtd">
<!-- Created with Vectornator (http://vectornator.io/) -->
<svg height="100%" stroke-miterlimit="10" style="fill-rule:nonzero;clip-rule:evenodd;stroke-linecap:round;stroke-linejoin:round;" version="1.1" viewBox="0 0 20 20" width="100%" xml:space="preserve" xmlns="http://www.w3.org/2000/svg" xmlns:vectornator="http://vectornator.io" xmlns:xlink="http://www.w3.org/1999/xlink">
<defs/>
<g id="Page-1" vectornator:layerName="Page-1">
<path d="M15.821 14.1212C15.58 14.8034 14.622 15.3676 13.858 15.5327C13.335 15.6437 12.653 15.7317 10.355 14.7794C7.774 13.7101 4.19 9.90097 4.19 7.36621C4.19 6.07582 4.934 4.57337 6.235 4.57337C6.861 4.57337 6.999 4.58538 7.205 5.07952C7.446 5.6617 8.034 7.09613 8.104 7.24317C8.393 7.84635 7.81 8.19946 7.387 8.72462C7.252 8.88266 7.099 9.05372 7.27 9.3478C7.44 9.63589 8.028 10.5942 8.892 11.3634C10.008 12.3577 10.913 12.6748 11.237 12.8098C11.478 12.9099 11.766 12.8869 11.942 12.6988C12.165 12.4577 12.442 12.0576 12.724 11.6635C12.923 11.3814 13.176 11.3464 13.441 11.4464C13.62 11.5085 15.895 12.5648 15.991 12.7338C16.062 12.8569 16.062 13.439 15.821 14.1212M10.002 0L9.997 0L9.997 0C4.484 0 0 4.48535 0 10C0 12.1867 0.705 14.2153 1.904 15.8608L0.658 19.5769L4.501 18.3485C6.082 19.3948 7.969 20 10.002 20C15.515 20 20 15.5147 20 10C20 4.48535 15.515 0 10.002 0" fill="#ffffff" fill-rule="evenodd" opacity="1" stroke="none" vectornator:layerName="path"/>
</g>
</svg>
