<svg xmlns="http://www.w3.org/2000/svg" viewBox="0 0 47.5 47.5" id="bag"><defs><clipPath id="a"><path d="M0 38h38V0H0v38Z"></path></clipPath></defs><g clip-path="url(#a)" transform="matrix(1.25 0 0 -1.25 0 47.5)"><path fill="#ffac33" d="M29 15a1 1 0 0 0-1 1v6c0 6.065-4.037 11-9 11-4.962 0-9-4.935-9-11v-6a1 1 0 1 0-2 0v6c0 7.168 4.935 13 11 13s11-5.832 11-13v-6a1 1 0 0 0-1-1"></path><path fill="#9266cc" d="M34.386 24.028C34.126 26.213 32.115 28 29.914 28H8.086c-2.2 0-4.212-1.787-4.471-3.972L1.472 5.972C1.212 3.787 2.8 2 5 2h28c2.2 0 3.788 1.787 3.529 3.972l-2.143 18.056Z"></path><path fill="#ffd983" d="M29 17a1 1 0 0 0-1 1v6c0 6.065-4.037 11-9 11-4.962 0-9-4.935-9-11v-6a1 1 0 1 0-2 0v6c0 7.168 4.935 13 11 13s11-5.832 11-13v-6a1 1 0 0 0-1-1"></path></g></svg>