<?xml version="1.0" standalone="no"?>
<!DOCTYPE svg PUBLIC "-//W3C//DTD SVG 20010904//EN"
 "http://www.w3.org/TR/2001/REC-SVG-20010904/DTD/svg10.dtd">
<svg version="1.0" xmlns="http://www.w3.org/2000/svg"
 width="1024.000000pt" height="1024.000000pt" viewBox="0 0 1024.000000 1024.000000"
 preserveAspectRatio="xMidYMid meet">
<metadata>
Created by potrace 1.14, written by Peter Selinger 2001-2017
</metadata>
<g transform="translate(0.000000,1024.000000) scale(0.100000,-0.100000)"
fill="#000000" stroke="none">
<path d="M5967 8403 c-1 0 -49 -4 -107 -7 -115 -8 -165 -12 -225 -21 -22 -4
-53 -8 -70 -11 -78 -11 -171 -30 -292 -60 l-133 -33 -67 19 c-171 46 -362 80
-558 98 -162 14 -640 6 -698 -13 -7 -2 -37 -6 -67 -10 -168 -18 -486 -99 -675
-172 -326 -126 -576 -266 -869 -486 -16 -12 -34 -26 -40 -32 -6 -5 -43 -37
-81 -69 -77 -66 -263 -250 -339 -336 -155 -177 -336 -448 -448 -670 -68 -134
-180 -407 -192 -466 l-7 -30 246 0 245 0 31 75 c44 108 148 314 199 396 48 77
191 281 218 311 9 11 42 49 73 84 429 493 1040 831 1674 925 61 9 121 19 135
21 54 10 445 16 435 7 -5 -5 -57 -40 -114 -77 -147 -97 -331 -247 -474 -389
-142 -141 -218 -228 -332 -382 -69 -93 -106 -149 -212 -320 -7 -11 -43 -81
-81 -155 -177 -345 -295 -747 -339 -1150 -10 -98 -10 -542 0 -645 66 -640 308
-1236 704 -1730 106 -133 307 -341 423 -439 47 -39 87 -73 90 -76 17 -17 108
-83 222 -161 l133 -91 -205 5 c-113 3 -216 8 -230 10 -14 3 -51 8 -84 12 -57
7 -81 10 -141 20 -156 26 -394 97 -573 172 -448 185 -857 503 -1162 903 -134
175 -286 444 -360 635 -13 33 -25 62 -28 65 -8 11 -484 6 -488 -4 -4 -11 28
-105 85 -248 35 -89 137 -299 181 -373 16 -27 37 -63 46 -80 52 -94 230 -340
330 -455 108 -125 320 -324 497 -466 42 -34 240 -165 321 -213 235 -138 503
-253 761 -325 109 -31 291 -73 348 -81 12 -2 56 -8 97 -14 219 -34 625 -36
870 -6 121 15 294 49 419 82 l93 25 80 -22 c77 -21 92 -24 148 -35 14 -3 36
-7 50 -10 35 -8 126 -23 185 -31 28 -3 58 -8 68 -10 130 -24 626 -24 778 1 13
2 47 6 74 10 532 67 1100 311 1564 671 104 80 369 332 449 426 195 228 351
467 481 738 57 119 171 402 171 424 0 3 -112 6 -248 6 l-248 0 -34 -82 c-235
-581 -665 -1066 -1233 -1392 -54 -31 -101 -56 -103 -56 -2 0 -42 -18 -88 -40
-156 -75 -453 -174 -586 -196 -14 -2 -36 -7 -50 -10 -14 -3 -36 -8 -50 -10
-14 -2 -38 -6 -55 -9 -16 -2 -55 -7 -85 -11 -30 -3 -66 -8 -80 -10 -14 -3
-113 -7 -220 -9 -195 -4 -195 -4 -170 15 14 11 28 20 32 20 19 0 297 207 397
295 114 99 322 315 391 405 19 25 37 47 41 50 3 3 36 47 73 99 180 250 332
539 437 831 l39 110 -251 -2 -250 -3 -30 -75 c-274 -687 -846 -1257 -1551
-1546 -129 -53 -130 -53 -275 7 -481 200 -884 516 -1202 942 -39 53 -71 99
-71 102 0 4 -11 21 -24 38 -36 48 -145 248 -197 362 -86 188 -161 421 -198
622 -21 107 -24 127 -38 253 -10 86 -10 487 0 570 14 112 18 143 33 225 21
114 78 333 103 400 5 11 23 58 41 105 245 631 721 1163 1320 1474 138 71 337
155 372 157 13 1 75 -19 138 -45 335 -137 651 -344 905 -592 74 -72 212 -226
255 -283 14 -18 43 -57 65 -87 106 -141 259 -416 320 -576 l30 -78 248 0 c147
0 247 4 247 9 0 6 -20 63 -44 128 -139 379 -359 749 -615 1038 -58 65 -251
257 -316 314 -83 73 -274 217 -367 275 -43 27 -76 51 -74 53 6 6 273 4 356 -2
273 -22 617 -104 862 -207 202 -85 455 -233 642 -377 117 -89 356 -321 448
-436 188 -232 342 -495 448 -762 l12 -33 249 0 248 0 -34 99 c-69 197 -175
425 -279 594 -22 37 -50 82 -61 100 -21 35 -165 239 -174 247 -4 3 -38 43 -77
90 -320 383 -754 703 -1224 903 -106 45 -321 123 -363 131 -12 3 -49 12 -82
21 -73 20 -81 22 -175 41 -111 23 -133 26 -235 39 -27 4 -60 8 -73 10 -55 9
-448 25 -455 18z"/>
<path d="M1258 5905 c-2 -1 -28 -5 -58 -8 -173 -19 -364 -114 -485 -242 -66
-70 -97 -114 -140 -200 -139 -280 -113 -595 69 -849 116 -161 309 -283 509
-321 67 -13 242 -13 302 0 128 27 285 100 365 172 47 41 128 129 152 166 56
82 109 203 123 279 3 12 9 45 14 71 14 74 5 233 -18 320 -84 322 -365 569
-686 603 -53 6 -144 11 -147 9z m195 -508 c69 -31 122 -87 160 -167 28 -57 31
-75 31 -145 -1 -63 -7 -92 -27 -137 -51 -114 -169 -196 -294 -203 -308 -18
-482 339 -278 572 101 115 263 147 408 80z"/>
<path d="M7108 5905 c-2 -1 -28 -5 -58 -8 -230 -21 -457 -160 -587 -360 -94
-143 -134 -276 -135 -447 -1 -285 142 -542 386 -695 84 -52 206 -98 301 -114
80 -13 246 -6 320 14 282 74 490 267 583 540 25 76 34 129 38 235 7 221 -76
431 -236 591 -110 110 -236 182 -385 218 -69 17 -218 34 -227 26z m132 -487
c197 -52 302 -284 215 -473 -87 -190 -320 -259 -498 -148 -68 43 -136 138
-153 213 -40 186 82 376 267 414 69 14 100 13 169 -6z"/>
<path d="M8957 5904 c-1 -1 -24 -4 -52 -7 -267 -26 -520 -210 -639 -462 -55
-117 -77 -218 -77 -355 1 -365 249 -684 608 -782 106 -29 287 -31 393 -4 312
78 541 315 616 636 11 48 12 225 2 290 -59 376 -390 667 -776 683 -40 2 -74 2
-75 1z m143 -486 c91 -24 170 -92 216 -186 25 -49 29 -69 29 -142 0 -77 -3
-92 -33 -152 -45 -91 -131 -164 -218 -184 -141 -32 -280 15 -363 122 -66 86
-89 201 -61 305 24 89 108 187 190 222 40 17 133 34 165 31 17 -2 50 -9 75
-16z"/>
</g>
</svg>
