<?xml version="1.0" encoding="utf-8"?>
<!-- Generator: Adobe Illustrator 28.0.0, SVG Export Plug-In . SVG Version: 6.00 Build 0)  -->
<svg version="1.1" xmlns="http://www.w3.org/2000/svg" xmlns:xlink="http://www.w3.org/1999/xlink" x="0px" y="0px"
	 viewBox="126 297 344 250" style="enable-background:new 50 100 300 300;" xml:space="preserve">
<style type="text/css">
	.st0{display:none;}
	.st1{display:inline;}
	.st2{fill:#FEFEFE;}
	.st3{fill:#020202;}
	.st4{fill:#B86DAC;}
	.st5{fill:#CF8D2B;}
	.st6{fill:#85CCAC;}
</style>
<g id="Voorbeeld" class="st0">
	<g class="st1">
		<path class="st2" d="M280.2,325.9c-34.3,16.1-55.1,42.4-62.1,79.7c2.8,0,5.3,0,7.8,0c0-0.2,0.1-0.3,0.1-0.5c1.5-8.7,4-17.1,8-24.9
			c13.7-27.4,35.5-44.8,65.2-52.4c3.8-1,7.6-1.7,11.7-0.8c20.2,4.3,37.5,13.9,51.6,29c11.7,12.6,19.5,27.3,23.3,44.1
			c0.4,1.8,0.8,3.6,1.1,5.4c1.4-0.1,2.6-0.3,3.8-0.3c1.2,0,2.4,0.1,3.8,0.2c-2.8-17.6-9.6-33.5-20.5-47.5
			c-10.9-14-24.5-24.6-40.7-31.8c16.8,2,32,7.8,45.6,17.8c21.2,15.7,34,36.6,38.6,62.4c2.5-0.4,4.9-0.9,7.4-1.3
			c-0.1-0.3-0.1-0.7-0.2-1c-3.8-21.6-13.5-40.1-29-55.6c-12-12-26.2-20.6-42.4-25.7c-13.2-4.2-26.7-5.6-40.5-4.5
			c-2.4,0.2-4.9,0.7-7.3,0.4c-10.1-1.2-20.1-1.1-30.1,0.5c-21.5,3.6-40.1,13-55.7,28.2c-14.7,14.3-24.3,31.6-28.8,51.6
			c-0.5,2.1-0.8,4.3-1.2,6.4c2.7,0,5.1,0,7.7,0c3.7-20.7,13.1-38.5,28.3-53.2C240.8,337.3,259.1,328.7,280.2,325.9z M417.3,437.2
			c-2.4,13.6-7.5,26.3-15.4,37.9c-8,11.6-18,21-30,28.3c-11.9,7.2-24.9,11.6-38.9,13.3c33.7-15.9,54.2-41.9,61.5-78.5
			c-1.5,0.1-2.7,0.2-4,0.2c-1.3,0-2.5-0.3-3.8-0.4c-0.1,0.3-0.2,0.6-0.2,1c-3.8,19.9-13,37-27.5,51.1c-13.3,13-29.1,21.4-47.2,25.2
			c-2,0.4-4.1,1.1-6,0.7c-5.2-1-10.5-2.2-15.5-3.8c-14.8-4.9-27.5-13-38.4-24.2c-11.3-11.6-19.3-25.2-23.7-40.8
			c-0.9-3-1.5-6.1-2.3-9.2c-2.3,0-4.7,0-7,0c-0.2,0-0.3,0.1-0.7,0.1c7.2,36.5,27.9,62.4,61.3,78.4c-15.7-2-30-7.5-42.8-16.7
			c-21.3-15.3-34.3-35.9-39.3-61.4c-2.5,0-5,0-7.5,0c0,0.1,0,0.2,0,0.3c1.8,10.2,4.9,19.9,9.6,29.2c5.4,10.7,12.5,20.3,21.3,28.6
			c11.3,10.7,24.4,18.6,39.2,23.4c14,4.6,28.4,6,43,4.5c1.5-0.2,3.1-0.5,4.6-0.3c13.3,1.6,26.5,1,39.5-2.2
			c36.6-9,65.7-37.5,75.6-73.8c0.9-3.1,1.5-6.3,2.2-9.4C422.2,438.1,419.8,437.7,417.3,437.2z M307.4,435.4c0-9.2,0-18.3,0-27.4
			c-2.6,0-5,0-7.7,0c0,4.7,0,9.4,0,14.3c-3.9-4.7-7.6-9.2-11.4-13.7c-0.2-0.3-0.6-0.7-0.9-0.7c-2-0.1-4,0-6,0c0,9.2,0,18.2,0,27.3
			c2.5,0,5,0,7.7,0c0-4.8,0-9.4,0-14.3c3.9,4.7,7.5,9.1,11.3,13.6c0.3,0.4,0.8,0.8,1.2,0.8C303.5,435.5,305.4,435.4,307.4,435.4z
			 M423.9,407.4c-1,0.2-2.8,0.3-4.5,0.9c-5.4,1.8-8.9,5.4-9.8,11c-0.9,5.7,0.9,10.4,5.6,13.8c3.6,2.6,7.7,3.2,12.1,2.6
			c9.9-1.3,15.6-11.9,10.9-20.7C435.4,409.8,430.5,407.7,423.9,407.4z M192.5,407.4c-0.9,0.1-2.3,0.2-3.7,0.6
			c-5.4,1.4-9.1,4.6-10.5,10c-1.4,5.3-0.2,10.1,3.8,13.9c3.8,3.6,8.5,4.5,13.6,3.9c10.3-1.3,15.9-12.5,10.6-21.3
			C203.3,409.6,198.6,407.7,192.5,407.4z M376.4,421.7c0,4.4,1.5,8.1,4.9,10.8c5,4,10.7,4.5,16.6,2.3c9.3-3.5,11.9-15.8,4.9-22.8
			c-4-4-9-5.1-14.5-4.2C381.2,408.9,376.4,414.6,376.4,421.7z M262.7,435.4c0-9.2,0-18.2,0-27.3c-2.6,0-5.1,0-7.7,0
			c0,3.4,0,6.8,0,10.1c-3.5,0-7,0-10.5,0c0-3.4,0-6.8,0-10.1c-2.6,0-5.2,0-7.7,0c0,9.1,0,18.2,0,27.3c2.6,0,5.1,0,7.8,0
			c0-3.6,0-7,0-10.6c3.5,0,7,0,10.5,0c0,3.5,0,7,0,10.6C257.6,435.4,260.1,435.4,262.7,435.4z M451.7,435.4c0-2.4,0-4.7,0-7.2
			c2.5,0,4.9,0.2,7.2,0c6.9-0.6,10.8-6,9.3-12.5c-0.9-4-4.5-7-9.3-7.3c-4.9-0.3-9.9-0.2-14.9-0.2c-0.1,0-0.1,0.1-0.2,0.1
			c0,9,0,18.1,0,27.2C446.5,435.4,449.1,435.4,451.7,435.4z M331.3,421.2c-0.1,0.2-0.1,0.3-0.1,0.4c0,1.5,0,3,0,4.4
			c0,3.1,0,3.1-3,3.5c-4,0.6-7.7-1.8-8.6-5.6c-1-4.4,1-8.4,4.9-9.5c3.2-1,6.2-0.3,8.7,2c0.2,0.2,0.5,0.4,0.7,0.6
			c1.7-1.5,3.3-3,5.1-4.6c-0.5-0.4-1-0.8-1.4-1.2c-4.5-3.8-9.7-4.4-15.2-3.2c-5.6,1.2-9.9,5.8-10.6,11.2c-0.9,6.4,1.5,11.9,6.8,14.7
			c6.5,3.4,12.9,2.5,19.1-1.1c0.3-0.2,0.5-0.8,0.5-1.2c0-2.4,0-4.9,0-7.3c0-1.1,0-2.1,0-3.2C335.7,421.2,333.5,421.2,331.3,421.2z
			 M152.6,412.5c-1.6-1.1-2.9-2.4-4.5-3.3c-3.3-1.8-6.9-2.1-10.6-1.5c-11.7,2-14.3,13.6-10.3,20.9c2.8,5,7.3,7.1,12.8,7.3
			c4.8,0.2,9.1-1.2,12.4-5.2c-1.7-1.5-3.3-3-4.9-4.5c-4.2,3.8-8.8,4.2-11.9,1.1c-2.8-2.8-3-8.1-0.3-11.1c1.3-1.4,2.9-2.2,4.8-2.4
			c3-0.3,5.4,0.9,7.4,3.2C149.1,415.6,150.7,414.2,152.6,412.5z M225.5,435.4c0-7.1,0-14.1,0-21.2c2.8,0,5.5,0,8.2,0
			c0-2.1,0-4.1,0-6.1c-8.2,0-16.3,0-24.4,0c0,2.1,0,4,0,6.1c2.8,0,5.5,0,8.4,0c0,7.1,0,14.1,0,21.2
			C220.3,435.4,222.8,435.4,225.5,435.4z M362.1,429.3c0-7.1,0-14.2,0-21.2c-2.7,0-5.2,0-7.7,0c0,9.1,0,18.2,0,27.3
			c6.9,0,13.8,0,20.7,0c0-2,0-4,0-6.1C370.8,429.3,366.5,429.3,362.1,429.3z M155.8,408.1c0,9.1,0,18.2,0,27.3c7,0,13.9,0,20.7,0
			c0-2.1,0-4,0-6.1c-4.4,0-8.7,0-13.1,0c0-7.1,0-14.1,0-21.1C160.8,408.1,158.3,408.1,155.8,408.1z M275.8,435.4
			c0-9.2,0-18.3,0-27.4c-2.6,0-5.1,0-7.6,0c0,9.1,0,18.2,0,27.4c0.5,0,0.9,0,1.3,0C271.6,435.4,273.7,435.4,275.8,435.4z"/>
		<path class="st3" d="M280.2,325.9c-21.1,2.9-39.3,11.5-54.6,26.1c-15.2,14.6-24.6,32.5-28.3,53.2c-2.5,0-5,0-7.7,0
			c0.4-2.1,0.8-4.3,1.2-6.4c4.6-20,14.1-37.3,28.8-51.6c15.6-15.2,34.2-24.6,55.7-28.2c10-1.7,20-1.7,30.1-0.5
			c2.4,0.3,4.8-0.2,7.3-0.4c13.8-1.2,27.3,0.3,40.5,4.5c16.2,5.1,30.4,13.7,42.4,25.7c15.5,15.5,25.2,34,29,55.6
			c0.1,0.4,0.1,0.8,0.2,1c-2.5,0.4-4.9,0.9-7.4,1.3c-4.6-25.8-17.4-46.7-38.6-62.4c-13.6-10-28.8-15.9-45.6-17.8
			c16.2,7.3,29.8,17.8,40.7,31.8c10.9,14,17.7,29.9,20.5,47.5c-1.3-0.1-2.6-0.2-3.8-0.2c-1.2,0-2.5,0.2-3.8,0.3
			c-0.4-1.8-0.7-3.6-1.1-5.4c-3.8-16.8-11.6-31.5-23.3-44.1c-14.1-15.2-31.4-24.7-51.6-29c-4.1-0.9-7.9-0.1-11.7,0.8
			c-29.7,7.5-51.5,25-65.2,52.4c-3.9,7.9-6.5,16.2-8,24.9c0,0.2-0.1,0.3-0.1,0.5c-2.5,0-5,0-7.8,0
			C225.1,368.3,245.9,342,280.2,325.9z"/>
		<path class="st3" d="M417.3,437.2c2.5,0.5,4.9,0.9,7.5,1.4c-0.7,3.1-1.3,6.3-2.2,9.4c-9.9,36.3-39,64.8-75.6,73.8
			c-13,3.2-26.2,3.8-39.5,2.2c-1.5-0.2-3.1,0.1-4.6,0.3c-14.7,1.5-29,0-43-4.5c-14.8-4.9-27.9-12.7-39.2-23.4
			c-8.8-8.3-15.8-17.8-21.3-28.6c-4.7-9.2-7.8-19-9.6-29.2c0-0.1,0-0.2,0-0.3c2.5,0,5,0,7.5,0c5.1,25.5,18.1,46.2,39.3,61.4
			c12.8,9.2,27.1,14.7,42.8,16.7c-33.4-16-54.1-41.9-61.3-78.4c0.4-0.1,0.5-0.1,0.7-0.1c2.4,0,4.7,0,7,0c0.8,3.1,1.4,6.2,2.3,9.2
			c4.4,15.6,12.4,29.2,23.7,40.8c10.9,11.1,23.6,19.3,38.4,24.2c5.1,1.7,10.3,2.8,15.5,3.8c1.9,0.4,4-0.3,6-0.7
			c18.2-3.9,33.9-12.3,47.2-25.2c14.5-14.2,23.7-31.2,27.5-51.1c0.1-0.3,0.1-0.6,0.2-1c1.3,0.1,2.5,0.4,3.8,0.4c1.2,0,2.5-0.1,4-0.2
			c-7.3,36.6-27.8,62.6-61.5,78.5c14-1.7,26.9-6.1,38.9-13.3c12-7.3,22-16.7,30-28.3C409.8,463.6,414.9,450.9,417.3,437.2z"/>
		<path class="st3" d="M307.4,435.4c-2,0-3.9,0-5.8,0c-0.4,0-0.9-0.4-1.2-0.8c-3.7-4.4-7.4-8.9-11.3-13.6c0,4.9,0,9.5,0,14.3
			c-2.6,0-5.1,0-7.7,0c0-9.1,0-18.1,0-27.3c2,0,4,0,6,0c0.3,0,0.7,0.4,0.9,0.7c3.7,4.5,7.5,9,11.4,13.7c0-4.9,0-9.6,0-14.3
			c2.6,0,5.1,0,7.7,0C307.4,417.1,307.4,426.2,307.4,435.4z"/>
		<path class="st4" d="M423.9,407.4c6.6,0.2,11.5,2.3,14.4,7.7c4.7,8.8-1,19.4-10.9,20.7c-4.4,0.5-8.5-0.1-12.1-2.6
			c-4.7-3.4-6.5-8.2-5.6-13.8c0.9-5.6,4.4-9.3,9.8-11C421.1,407.7,422.9,407.6,423.9,407.4z M424.6,429.5c3.9-0.1,7.4-2.6,7.4-7.7
			c0-5.3-3.6-7.8-7.2-7.8c-4.4,0-7.5,3.1-7.5,7.7C417.3,426.4,420.3,429.4,424.6,429.5z"/>
		<path class="st5" d="M192.5,407.4c6.1,0.2,10.8,2.1,13.8,7.1c5.3,8.8-0.4,20-10.6,21.3c-5.1,0.6-9.8-0.3-13.6-3.9
			c-4.1-3.8-5.2-8.6-3.8-13.9c1.4-5.5,5.2-8.7,10.5-10C190.1,407.6,191.6,407.6,192.5,407.4z M185.7,421.7c0,4.6,3,7.8,7.3,7.8
			c4.2,0,7.4-3.3,7.4-7.8c0-4.5-3.1-7.8-7.4-7.8C188.7,414,185.7,417.2,185.7,421.7z"/>
		<path class="st6" d="M376.4,421.7c0-7.1,4.8-12.8,12-13.9c5.4-0.9,10.4,0.1,14.5,4.2c7,7,4.4,19.4-4.9,22.8
			c-5.9,2.2-11.6,1.7-16.6-2.3C377.9,429.8,376.4,426.1,376.4,421.7z M391.6,414c-4.3,0-7.3,3.2-7.3,7.8c0,4.6,3.1,7.8,7.3,7.8
			c4.3,0,7.4-3.4,7.3-7.9C398.9,417.2,395.8,414,391.6,414z"/>
		<path class="st3" d="M262.7,435.4c-2.6,0-5.1,0-7.7,0c0-3.5,0-7,0-10.6c-3.5,0-7,0-10.5,0c0,3.5,0,7,0,10.6c-2.7,0-5.2,0-7.8,0
			c0-9.1,0-18.2,0-27.3c2.6,0,5.1,0,7.7,0c0,3.4,0,6.7,0,10.1c3.5,0,7,0,10.5,0c0-3.4,0-6.7,0-10.1c2.6,0,5.1,0,7.7,0
			C262.7,417.2,262.7,426.2,262.7,435.4z"/>
		<path class="st3" d="M451.7,435.4c-2.6,0-5.2,0-7.8,0c0-9.1,0-18.1,0-27.2c0.1-0.1,0.1-0.1,0.2-0.1c5,0,9.9-0.1,14.9,0.2
			c4.8,0.3,8.4,3.3,9.3,7.3c1.5,6.5-2.5,11.9-9.3,12.5c-2.4,0.2-4.8,0-7.2,0C451.7,430.7,451.7,433,451.7,435.4z M451.7,422
			c2,0,3.9,0.2,5.8,0c2.2-0.3,3.2-1.7,3.2-3.8c0-2.1-1.1-3.5-3.3-3.8c-1.9-0.2-3.8,0-5.7,0C451.7,416.9,451.7,419.4,451.7,422z"/>
		<path class="st3" d="M331.3,421.2c2.2,0,4.4,0,6.8,0c0,1.1,0,2.1,0,3.2c0,2.4,0,4.9,0,7.3c0,0.4-0.2,1-0.5,1.2
			c-6.2,3.6-12.6,4.5-19.1,1.1c-5.3-2.8-7.7-8.4-6.8-14.7c0.8-5.4,5-9.9,10.6-11.2c5.5-1.2,10.7-0.6,15.2,3.2
			c0.4,0.4,0.9,0.7,1.4,1.2c-1.8,1.6-3.4,3.1-5.1,4.6c-0.3-0.2-0.5-0.4-0.7-0.6c-2.5-2.3-5.4-2.9-8.7-2c-3.9,1.2-5.9,5.1-4.9,9.5
			c0.9,3.8,4.5,6.2,8.6,5.6c3-0.4,3-0.4,3-3.5c0-1.5,0-3,0-4.4C331.2,421.4,331.3,421.4,331.3,421.2z"/>
		<path class="st3" d="M152.6,412.5c-1.9,1.7-3.5,3.2-5.2,4.7c-1.9-2.3-4.3-3.5-7.4-3.2c-1.9,0.2-3.5,0.9-4.8,2.4
			c-2.6,2.9-2.5,8.3,0.3,11.1c3.1,3.1,7.6,2.7,11.9-1.1c1.6,1.5,3.3,3,4.9,4.5c-3.3,3.9-7.6,5.4-12.4,5.2c-5.5-0.2-10-2.3-12.8-7.3
			c-4-7.3-1.4-18.9,10.3-20.9c3.7-0.6,7.3-0.3,10.6,1.5C149.7,410.1,151,411.3,152.6,412.5z"/>
		<path class="st3" d="M225.5,435.4c-2.7,0-5.2,0-7.8,0c0-7.1,0-14.1,0-21.2c-2.8,0-5.6,0-8.4,0c0-2.1,0-4.1,0-6.1
			c8.1,0,16.2,0,24.4,0c0,2,0,4,0,6.1c-2.7,0-5.4,0-8.2,0C225.5,421.3,225.5,428.3,225.5,435.4z"/>
		<path class="st3" d="M362.1,429.3c4.4,0,8.7,0,13,0c0,2.1,0,4.1,0,6.1c-6.9,0-13.7,0-20.7,0c0-9.1,0-18.2,0-27.3c2.5,0,5,0,7.7,0
			C362.1,415.1,362.1,422.1,362.1,429.3z"/>
		<path class="st3" d="M155.8,408.1c2.5,0,5,0,7.6,0c0,7,0,14,0,21.1c4.4,0,8.7,0,13.1,0c0,2.1,0,4.1,0,6.1c-6.9,0-13.7,0-20.7,0
			C155.8,426.3,155.8,417.2,155.8,408.1z"/>
		<path class="st3" d="M275.8,435.4c-2.1,0-4.3,0-6.4,0c-0.4,0-0.8,0-1.3,0c0-9.2,0-18.2,0-27.4c2.5,0,5,0,7.6,0
			C275.8,417.1,275.8,426.2,275.8,435.4z"/>
		<path class="st2" d="M424.6,429.5c-4.3-0.2-7.3-3.1-7.3-7.8c0-4.6,3.2-7.8,7.5-7.7c3.5,0,7.2,2.5,7.2,7.8
			C431.9,426.9,428.5,429.5,424.6,429.5z"/>
		<path class="st2" d="M185.7,421.7c0-4.6,3-7.8,7.3-7.8c4.2,0,7.4,3.3,7.4,7.8c0,4.5-3.2,7.8-7.4,7.8
			C188.7,429.5,185.6,426.3,185.7,421.7z"/>
		<path class="st2" d="M391.6,414c4.2,0,7.4,3.3,7.4,7.6c0,4.6-3.1,7.9-7.3,7.9c-4.3,0-7.3-3.2-7.3-7.8
			C384.3,417.2,387.3,414,391.6,414z"/>
		<path class="st2" d="M451.7,422c0-2.6,0-5.1,0-7.6c1.9,0,3.9-0.2,5.7,0c2.2,0.3,3.2,1.7,3.3,3.8c0,2.1-1,3.5-3.2,3.8
			C455.6,422.2,453.7,422,451.7,422z"/>
	</g>
</g>
<g id="Cirkels">
</g>
<g id="Laag_5">
</g>
<g id="Outline_tekst">
</g>
<g id="Tekst">
	<g>
		<g>
			<path d="M164.5,420.9c0-71.9,56.5-124.6,133.1-124.6s133.1,52.7,133.1,124.6s-56.5,124.6-133.1,124.6S164.5,492.8,164.5,420.9z
				 M362.3,420.9c0-41.4-28.4-68.4-64.7-68.4c-36.3,0-64.7,27-64.7,68.4c0,41.4,28.4,68.4,64.7,68.4
				C333.9,489.4,362.3,462.4,362.3,420.9z"/>
		</g>
	</g>
</g>
</svg>
