<?xml version="1.0" encoding="utf-8"?>
<!-- Generator: Adobe Illustrator 28.0.0, SVG Export Plug-In . SVG Version: 6.00 Build 0)  -->
<svg version="1.1" id="Laag_2" xmlns="http://www.w3.org/2000/svg" xmlns:xlink="http://www.w3.org/1999/xlink" x="0px" y="0px"
	viewBox="183.4 323.5 228.2 194.9" style="enable-background:new 0 0 595 842;" xml:space="preserve">
<style type="text/css">
</style>
<g>
	<g>
		<path class="st0" d="M189.1,334.9c-3.1,0-5.7-2.6-5.7-5.7c0-3.1,2.6-5.7,5.7-5.7c3.1,0,5.7,2.6,5.7,5.7
			C194.7,332.4,192.2,334.9,189.1,334.9z M189.1,324.4c-2.7,0-4.9,2.2-4.9,4.9s2.2,4.9,4.9,4.9s4.9-2.2,4.9-4.9
			S191.7,324.4,189.1,324.4z"/>
		<path class="st0" d="M205.7,334.9c-3.1,0-5.7-2.6-5.7-5.7c0-3.1,2.6-5.7,5.7-5.7c3.1,0,5.7,2.6,5.7,5.7
			C211.4,332.4,208.9,334.9,205.7,334.9z M205.7,324.4c-2.7,0-4.9,2.2-4.9,4.9s2.2,4.9,4.9,4.9s4.9-2.2,4.9-4.9
			S208.4,324.4,205.7,324.4z"/>
		<path class="st0" d="M222.4,334.9c-3.1,0-5.7-2.6-5.7-5.7c0-3.1,2.6-5.7,5.7-5.7c3.1,0,5.7,2.6,5.7,5.7
			C228.1,332.4,225.6,334.9,222.4,334.9z M222.4,324.4c-2.7,0-4.9,2.2-4.9,4.9s2.2,4.9,4.9,4.9s4.9-2.2,4.9-4.9
			S225.1,324.4,222.4,324.4z"/>
		<path class="st0" d="M239.1,334.9c-3.1,0-5.7-2.6-5.7-5.7c0-3.1,2.6-5.7,5.7-5.7c3.1,0,5.7,2.6,5.7,5.7
			C244.8,332.4,242.2,334.9,239.1,334.9z M239.1,324.4c-2.7,0-4.9,2.2-4.9,4.9s2.2,4.9,4.9,4.9s4.9-2.2,4.9-4.9
			S241.8,324.4,239.1,324.4z"/>
		<path class="st0" d="M255.8,334.9c-3.1,0-5.7-2.6-5.7-5.7c0-3.1,2.6-5.7,5.7-5.7s5.7,2.6,5.7,5.7
			C261.5,332.4,258.9,334.9,255.8,334.9z M255.8,324.4c-2.7,0-4.9,2.2-4.9,4.9s2.2,4.9,4.9,4.9s4.9-2.2,4.9-4.9
			S258.5,324.4,255.8,324.4z"/>
		<path class="st0" d="M272.5,334.9c-3.1,0-5.7-2.6-5.7-5.7c0-3.1,2.6-5.7,5.7-5.7c3.1,0,5.7,2.6,5.7,5.7
			C278.2,332.4,275.6,334.9,272.5,334.9z M272.5,324.4c-2.7,0-4.9,2.2-4.9,4.9s2.2,4.9,4.9,4.9c2.7,0,4.9-2.2,4.9-4.9
			S275.2,324.4,272.5,324.4z"/>
		<path class="st0" d="M289.2,334.9c-3.1,0-5.7-2.6-5.7-5.7c0-3.1,2.6-5.7,5.7-5.7s5.7,2.6,5.7,5.7
			C294.8,332.4,292.3,334.9,289.2,334.9z M289.2,324.4c-2.7,0-4.9,2.2-4.9,4.9s2.2,4.9,4.9,4.9s4.9-2.2,4.9-4.9
			S291.9,324.4,289.2,324.4z"/>
		<path class="st0" d="M305.8,334.9c-3.1,0-5.7-2.6-5.7-5.7c0-3.1,2.6-5.7,5.7-5.7s5.7,2.6,5.7,5.7
			C311.5,332.4,309,334.9,305.8,334.9z M305.8,324.4c-2.7,0-4.9,2.2-4.9,4.9s2.2,4.9,4.9,4.9s4.9-2.2,4.9-4.9
			S308.5,324.4,305.8,324.4z"/>
		<path class="st0" d="M322.5,334.9c-3.1,0-5.7-2.6-5.7-5.7c0-3.1,2.6-5.7,5.7-5.7c3.1,0,5.7,2.6,5.7,5.7
			C328.2,332.4,325.7,334.9,322.5,334.9z M322.5,324.4c-2.7,0-4.9,2.2-4.9,4.9s2.2,4.9,4.9,4.9c2.7,0,4.9-2.2,4.9-4.9
			S325.2,324.4,322.5,324.4z"/>
		<path class="st0" d="M339.2,334.9c-3.1,0-5.7-2.6-5.7-5.7c0-3.1,2.6-5.7,5.7-5.7s5.7,2.6,5.7,5.7
			C344.9,332.4,342.3,334.9,339.2,334.9z M339.2,324.4c-2.7,0-4.9,2.2-4.9,4.9s2.2,4.9,4.9,4.9s4.9-2.2,4.9-4.9
			S341.9,324.4,339.2,324.4z"/>
		<path class="st0" d="M355.9,334.9c-3.1,0-5.7-2.6-5.7-5.7c0-3.1,2.6-5.7,5.7-5.7s5.7,2.6,5.7,5.7
			C361.6,332.4,359,334.9,355.9,334.9z M355.9,324.4c-2.7,0-4.9,2.2-4.9,4.9s2.2,4.9,4.9,4.9s4.9-2.2,4.9-4.9
			S358.6,324.4,355.9,324.4z"/>
		<path class="st0" d="M372.6,334.9c-3.1,0-5.7-2.6-5.7-5.7c0-3.1,2.6-5.7,5.7-5.7c3.1,0,5.7,2.6,5.7,5.7
			C378.3,332.4,375.7,334.9,372.6,334.9z M372.6,324.4c-2.7,0-4.9,2.2-4.9,4.9s2.2,4.9,4.9,4.9c2.7,0,4.9-2.2,4.9-4.9
			S375.3,324.4,372.6,324.4z"/>
		<path class="st0" d="M389.3,334.9c-3.1,0-5.7-2.6-5.7-5.7c0-3.1,2.6-5.7,5.7-5.7c3.1,0,5.7,2.6,5.7,5.7
			C394.9,332.4,392.4,334.9,389.3,334.9z M389.3,324.4c-2.7,0-4.9,2.2-4.9,4.9s2.2,4.9,4.9,4.9c2.7,0,4.9-2.2,4.9-4.9
			S392,324.4,389.3,324.4z"/>
		<path class="st0" d="M405.9,334.9c-3.1,0-5.7-2.6-5.7-5.7c0-3.1,2.6-5.7,5.7-5.7s5.7,2.6,5.7,5.7
			C411.6,332.4,409.1,334.9,405.9,334.9z M405.9,324.4c-2.7,0-4.9,2.2-4.9,4.9s2.2,4.9,4.9,4.9s4.9-2.2,4.9-4.9
			S408.6,324.4,405.9,324.4z"/>
	</g>
	<g>
		<path class="st0" d="M189.1,351.6c-3.1,0-5.7-2.6-5.7-5.7c0-3.1,2.6-5.7,5.7-5.7c3.1,0,5.7,2.6,5.7,5.7
			C194.7,349.1,192.2,351.6,189.1,351.6z M189.1,341c-2.7,0-4.9,2.2-4.9,4.9s2.2,4.9,4.9,4.9s4.9-2.2,4.9-4.9S191.7,341,189.1,341z"
			/>
		<path class="st0" d="M205.7,351.6c-3.1,0-5.7-2.6-5.7-5.7c0-3.1,2.6-5.7,5.7-5.7c3.1,0,5.7,2.6,5.7,5.7
			C211.4,349.1,208.9,351.6,205.7,351.6z M205.7,341c-2.7,0-4.9,2.2-4.9,4.9s2.2,4.9,4.9,4.9s4.9-2.2,4.9-4.9S208.4,341,205.7,341z"
			/>
		<path class="st0" d="M222.4,351.6c-3.1,0-5.7-2.6-5.7-5.7c0-3.1,2.6-5.7,5.7-5.7c3.1,0,5.7,2.6,5.7,5.7
			C228.1,349.1,225.6,351.6,222.4,351.6z M222.4,341c-2.7,0-4.9,2.2-4.9,4.9s2.2,4.9,4.9,4.9s4.9-2.2,4.9-4.9S225.1,341,222.4,341z"
			/>
		<path class="st0" d="M239.1,351.6c-3.1,0-5.7-2.6-5.7-5.7c0-3.1,2.6-5.7,5.7-5.7c3.1,0,5.7,2.6,5.7,5.7
			C244.8,349.1,242.2,351.6,239.1,351.6z M239.1,341c-2.7,0-4.9,2.2-4.9,4.9s2.2,4.9,4.9,4.9s4.9-2.2,4.9-4.9S241.8,341,239.1,341z"
			/>
		<path class="st0" d="M255.8,351.6c-3.1,0-5.7-2.6-5.7-5.7c0-3.1,2.6-5.7,5.7-5.7s5.7,2.6,5.7,5.7
			C261.5,349.1,258.9,351.6,255.8,351.6z M255.8,341c-2.7,0-4.9,2.2-4.9,4.9s2.2,4.9,4.9,4.9s4.9-2.2,4.9-4.9S258.5,341,255.8,341z"
			/>
		<path class="st0" d="M272.5,351.6c-3.1,0-5.7-2.6-5.7-5.7c0-3.1,2.6-5.7,5.7-5.7c3.1,0,5.7,2.6,5.7,5.7
			C278.2,349.1,275.6,351.6,272.5,351.6z M272.5,341c-2.7,0-4.9,2.2-4.9,4.9s2.2,4.9,4.9,4.9c2.7,0,4.9-2.2,4.9-4.9
			S275.2,341,272.5,341z"/>
		<path class="st0" d="M289.2,351.6c-3.1,0-5.7-2.6-5.7-5.7c0-3.1,2.6-5.7,5.7-5.7s5.7,2.6,5.7,5.7
			C294.8,349.1,292.3,351.6,289.2,351.6z M289.2,341c-2.7,0-4.9,2.2-4.9,4.9s2.2,4.9,4.9,4.9s4.9-2.2,4.9-4.9S291.9,341,289.2,341z"
			/>
		<path class="st0" d="M305.8,351.6c-3.1,0-5.7-2.6-5.7-5.7c0-3.1,2.6-5.7,5.7-5.7s5.7,2.6,5.7,5.7
			C311.5,349.1,309,351.6,305.8,351.6z M305.8,341c-2.7,0-4.9,2.2-4.9,4.9s2.2,4.9,4.9,4.9s4.9-2.2,4.9-4.9S308.5,341,305.8,341z"/>
		<path class="st0" d="M322.5,351.6c-3.1,0-5.7-2.6-5.7-5.7c0-3.1,2.6-5.7,5.7-5.7c3.1,0,5.7,2.6,5.7,5.7
			C328.2,349.1,325.7,351.6,322.5,351.6z M322.5,341c-2.7,0-4.9,2.2-4.9,4.9s2.2,4.9,4.9,4.9c2.7,0,4.9-2.2,4.9-4.9
			S325.2,341,322.5,341z"/>
		<path class="st0" d="M339.2,351.6c-3.1,0-5.7-2.6-5.7-5.7c0-3.1,2.6-5.7,5.7-5.7s5.7,2.6,5.7,5.7
			C344.9,349.1,342.3,351.6,339.2,351.6z M339.2,341c-2.7,0-4.9,2.2-4.9,4.9s2.2,4.9,4.9,4.9s4.9-2.2,4.9-4.9S341.9,341,339.2,341z"
			/>
		<path class="st0" d="M355.9,351.6c-3.1,0-5.7-2.6-5.7-5.7c0-3.1,2.6-5.7,5.7-5.7s5.7,2.6,5.7,5.7
			C361.6,349.1,359,351.6,355.9,351.6z M355.9,341c-2.7,0-4.9,2.2-4.9,4.9s2.2,4.9,4.9,4.9s4.9-2.2,4.9-4.9S358.6,341,355.9,341z"/>
		<path class="st0" d="M372.6,351.6c-3.1,0-5.7-2.6-5.7-5.7c0-3.1,2.6-5.7,5.7-5.7c3.1,0,5.7,2.6,5.7,5.7
			C378.3,349.1,375.7,351.6,372.6,351.6z M372.6,341c-2.7,0-4.9,2.2-4.9,4.9s2.2,4.9,4.9,4.9c2.7,0,4.9-2.2,4.9-4.9
			S375.3,341,372.6,341z"/>
		<path class="st0" d="M389.3,351.6c-3.1,0-5.7-2.6-5.7-5.7c0-3.1,2.6-5.7,5.7-5.7c3.1,0,5.7,2.6,5.7,5.7
			C394.9,349.1,392.4,351.6,389.3,351.6z M389.3,341c-2.7,0-4.9,2.2-4.9,4.9s2.2,4.9,4.9,4.9c2.7,0,4.9-2.2,4.9-4.9
			S392,341,389.3,341z"/>
		<path class="st0" d="M405.9,351.6c-3.1,0-5.7-2.6-5.7-5.7c0-3.1,2.6-5.7,5.7-5.7s5.7,2.6,5.7,5.7
			C411.6,349.1,409.1,351.6,405.9,351.6z M405.9,341c-2.7,0-4.9,2.2-4.9,4.9s2.2,4.9,4.9,4.9s4.9-2.2,4.9-4.9S408.6,341,405.9,341z"
			/>
	</g>
	<g>
		<path class="st0" d="M189.1,368.3c-3.1,0-5.7-2.6-5.7-5.7c0-3.1,2.6-5.7,5.7-5.7c3.1,0,5.7,2.6,5.7,5.7
			C194.7,365.8,192.2,368.3,189.1,368.3z M189.1,357.7c-2.7,0-4.9,2.2-4.9,4.9s2.2,4.9,4.9,4.9s4.9-2.2,4.9-4.9
			S191.7,357.7,189.1,357.7z"/>
		<path class="st0" d="M205.7,368.3c-3.1,0-5.7-2.6-5.7-5.7c0-3.1,2.6-5.7,5.7-5.7c3.1,0,5.7,2.6,5.7,5.7
			C211.4,365.8,208.9,368.3,205.7,368.3z M205.7,357.7c-2.7,0-4.9,2.2-4.9,4.9s2.2,4.9,4.9,4.9s4.9-2.2,4.9-4.9
			S208.4,357.7,205.7,357.7z"/>
		<path class="st0" d="M222.4,368.3c-3.1,0-5.7-2.6-5.7-5.7c0-3.1,2.6-5.7,5.7-5.7c3.1,0,5.7,2.6,5.7,5.7
			C228.1,365.8,225.6,368.3,222.4,368.3z M222.4,357.7c-2.7,0-4.9,2.2-4.9,4.9s2.2,4.9,4.9,4.9s4.9-2.2,4.9-4.9
			S225.1,357.7,222.4,357.7z"/>
		<path class="st0" d="M239.1,368.3c-3.1,0-5.7-2.6-5.7-5.7c0-3.1,2.6-5.7,5.7-5.7c3.1,0,5.7,2.6,5.7,5.7
			C244.8,365.8,242.2,368.3,239.1,368.3z M239.1,357.7c-2.7,0-4.9,2.2-4.9,4.9s2.2,4.9,4.9,4.9s4.9-2.2,4.9-4.9
			S241.8,357.7,239.1,357.7z"/>
		<path class="st0" d="M255.8,368.3c-3.1,0-5.7-2.6-5.7-5.7c0-3.1,2.6-5.7,5.7-5.7s5.7,2.6,5.7,5.7
			C261.5,365.8,258.9,368.3,255.8,368.3z M255.8,357.7c-2.7,0-4.9,2.2-4.9,4.9s2.2,4.9,4.9,4.9s4.9-2.2,4.9-4.9
			S258.5,357.7,255.8,357.7z"/>
		<path class="st0" d="M272.5,368.3c-3.1,0-5.7-2.6-5.7-5.7c0-3.1,2.6-5.7,5.7-5.7c3.1,0,5.7,2.6,5.7,5.7
			C278.2,365.8,275.6,368.3,272.5,368.3z M272.5,357.7c-2.7,0-4.9,2.2-4.9,4.9s2.2,4.9,4.9,4.9c2.7,0,4.9-2.2,4.9-4.9
			S275.2,357.7,272.5,357.7z"/>
		<path class="st0" d="M289.2,368.3c-3.1,0-5.7-2.6-5.7-5.7c0-3.1,2.6-5.7,5.7-5.7s5.7,2.6,5.7,5.7
			C294.8,365.8,292.3,368.3,289.2,368.3z M289.2,357.7c-2.7,0-4.9,2.2-4.9,4.9s2.2,4.9,4.9,4.9s4.9-2.2,4.9-4.9
			S291.9,357.7,289.2,357.7z"/>
		<path class="st0" d="M305.8,368.3c-3.1,0-5.7-2.6-5.7-5.7c0-3.1,2.6-5.7,5.7-5.7s5.7,2.6,5.7,5.7
			C311.5,365.8,309,368.3,305.8,368.3z M305.8,357.7c-2.7,0-4.9,2.2-4.9,4.9s2.2,4.9,4.9,4.9s4.9-2.2,4.9-4.9
			S308.5,357.7,305.8,357.7z"/>
		<path class="st0" d="M322.5,368.3c-3.1,0-5.7-2.6-5.7-5.7c0-3.1,2.6-5.7,5.7-5.7c3.1,0,5.7,2.6,5.7,5.7
			C328.2,365.8,325.7,368.3,322.5,368.3z M322.5,357.7c-2.7,0-4.9,2.2-4.9,4.9s2.2,4.9,4.9,4.9c2.7,0,4.9-2.2,4.9-4.9
			S325.2,357.7,322.5,357.7z"/>
		<path class="st0" d="M339.2,368.3c-3.1,0-5.7-2.6-5.7-5.7c0-3.1,2.6-5.7,5.7-5.7s5.7,2.6,5.7,5.7
			C344.9,365.8,342.3,368.3,339.2,368.3z M339.2,357.7c-2.7,0-4.9,2.2-4.9,4.9s2.2,4.9,4.9,4.9s4.9-2.2,4.9-4.9
			S341.9,357.7,339.2,357.7z"/>
		<path class="st0" d="M355.9,368.3c-3.1,0-5.7-2.6-5.7-5.7c0-3.1,2.6-5.7,5.7-5.7s5.7,2.6,5.7,5.7
			C361.6,365.8,359,368.3,355.9,368.3z M355.9,357.7c-2.7,0-4.9,2.2-4.9,4.9s2.2,4.9,4.9,4.9s4.9-2.2,4.9-4.9
			S358.6,357.7,355.9,357.7z"/>
		<path class="st0" d="M372.6,368.3c-3.1,0-5.7-2.6-5.7-5.7c0-3.1,2.6-5.7,5.7-5.7c3.1,0,5.7,2.6,5.7,5.7
			C378.3,365.8,375.7,368.3,372.6,368.3z M372.6,357.7c-2.7,0-4.9,2.2-4.9,4.9s2.2,4.9,4.9,4.9c2.7,0,4.9-2.2,4.9-4.9
			S375.3,357.7,372.6,357.7z"/>
		<path class="st0" d="M389.3,368.3c-3.1,0-5.7-2.6-5.7-5.7c0-3.1,2.6-5.7,5.7-5.7c3.1,0,5.7,2.6,5.7,5.7
			C394.9,365.8,392.4,368.3,389.3,368.3z M389.3,357.7c-2.7,0-4.9,2.2-4.9,4.9s2.2,4.9,4.9,4.9c2.7,0,4.9-2.2,4.9-4.9
			S392,357.7,389.3,357.7z"/>
		<path class="st0" d="M405.9,368.3c-3.1,0-5.7-2.6-5.7-5.7c0-3.1,2.6-5.7,5.7-5.7s5.7,2.6,5.7,5.7
			C411.6,365.8,409.1,368.3,405.9,368.3z M405.9,357.7c-2.7,0-4.9,2.2-4.9,4.9s2.2,4.9,4.9,4.9s4.9-2.2,4.9-4.9
			S408.6,357.7,405.9,357.7z"/>
	</g>
	<g>
		<path class="st0" d="M189.1,385c-3.1,0-5.7-2.6-5.7-5.7c0-3.1,2.6-5.7,5.7-5.7c3.1,0,5.7,2.6,5.7,5.7
			C194.7,382.4,192.2,385,189.1,385z M189.1,374.4c-2.7,0-4.9,2.2-4.9,4.9s2.2,4.9,4.9,4.9s4.9-2.2,4.9-4.9S191.7,374.4,189.1,374.4
			z"/>
		<path class="st0" d="M205.7,385c-3.1,0-5.7-2.6-5.7-5.7c0-3.1,2.6-5.7,5.7-5.7c3.1,0,5.7,2.6,5.7,5.7
			C211.4,382.4,208.9,385,205.7,385z M205.7,374.4c-2.7,0-4.9,2.2-4.9,4.9s2.2,4.9,4.9,4.9s4.9-2.2,4.9-4.9S208.4,374.4,205.7,374.4
			z"/>
		<path class="st0" d="M222.4,385c-3.1,0-5.7-2.6-5.7-5.7c0-3.1,2.6-5.7,5.7-5.7c3.1,0,5.7,2.6,5.7,5.7
			C228.1,382.4,225.6,385,222.4,385z M222.4,374.4c-2.7,0-4.9,2.2-4.9,4.9s2.2,4.9,4.9,4.9s4.9-2.2,4.9-4.9S225.1,374.4,222.4,374.4
			z"/>
		<path class="st0" d="M239.1,385c-3.1,0-5.7-2.6-5.7-5.7c0-3.1,2.6-5.7,5.7-5.7c3.1,0,5.7,2.6,5.7,5.7
			C244.8,382.4,242.2,385,239.1,385z M239.1,374.4c-2.7,0-4.9,2.2-4.9,4.9s2.2,4.9,4.9,4.9s4.9-2.2,4.9-4.9S241.8,374.4,239.1,374.4
			z"/>
		<path class="st0" d="M255.8,385c-3.1,0-5.7-2.6-5.7-5.7c0-3.1,2.6-5.7,5.7-5.7s5.7,2.6,5.7,5.7C261.5,382.4,258.9,385,255.8,385z
			 M255.8,374.4c-2.7,0-4.9,2.2-4.9,4.9s2.2,4.9,4.9,4.9s4.9-2.2,4.9-4.9S258.5,374.4,255.8,374.4z"/>
		<path class="st0" d="M272.5,385c-3.1,0-5.7-2.6-5.7-5.7c0-3.1,2.6-5.7,5.7-5.7c3.1,0,5.7,2.6,5.7,5.7
			C278.2,382.4,275.6,385,272.5,385z M272.5,374.4c-2.7,0-4.9,2.2-4.9,4.9s2.2,4.9,4.9,4.9c2.7,0,4.9-2.2,4.9-4.9
			S275.2,374.4,272.5,374.4z"/>
		<path class="st0" d="M289.2,385c-3.1,0-5.7-2.6-5.7-5.7c0-3.1,2.6-5.7,5.7-5.7s5.7,2.6,5.7,5.7C294.8,382.4,292.3,385,289.2,385z
			 M289.2,374.4c-2.7,0-4.9,2.2-4.9,4.9s2.2,4.9,4.9,4.9s4.9-2.2,4.9-4.9S291.9,374.4,289.2,374.4z"/>
		<path class="st0" d="M305.8,385c-3.1,0-5.7-2.6-5.7-5.7c0-3.1,2.6-5.7,5.7-5.7s5.7,2.6,5.7,5.7C311.5,382.4,309,385,305.8,385z
			 M305.8,374.4c-2.7,0-4.9,2.2-4.9,4.9s2.2,4.9,4.9,4.9s4.9-2.2,4.9-4.9S308.5,374.4,305.8,374.4z"/>
		<path class="st0" d="M322.5,385c-3.1,0-5.7-2.6-5.7-5.7c0-3.1,2.6-5.7,5.7-5.7c3.1,0,5.7,2.6,5.7,5.7
			C328.2,382.4,325.7,385,322.5,385z M322.5,374.4c-2.7,0-4.9,2.2-4.9,4.9s2.2,4.9,4.9,4.9c2.7,0,4.9-2.2,4.9-4.9
			S325.2,374.4,322.5,374.4z"/>
		<path class="st0" d="M339.2,385c-3.1,0-5.7-2.6-5.7-5.7c0-3.1,2.6-5.7,5.7-5.7s5.7,2.6,5.7,5.7C344.9,382.4,342.3,385,339.2,385z
			 M339.2,374.4c-2.7,0-4.9,2.2-4.9,4.9s2.2,4.9,4.9,4.9s4.9-2.2,4.9-4.9S341.9,374.4,339.2,374.4z"/>
		<path class="st0" d="M355.9,385c-3.1,0-5.7-2.6-5.7-5.7c0-3.1,2.6-5.7,5.7-5.7s5.7,2.6,5.7,5.7C361.6,382.4,359,385,355.9,385z
			 M355.9,374.4c-2.7,0-4.9,2.2-4.9,4.9s2.2,4.9,4.9,4.9s4.9-2.2,4.9-4.9S358.6,374.4,355.9,374.4z"/>
		<path class="st0" d="M372.6,385c-3.1,0-5.7-2.6-5.7-5.7c0-3.1,2.6-5.7,5.7-5.7c3.1,0,5.7,2.6,5.7,5.7
			C378.3,382.4,375.7,385,372.6,385z M372.6,374.4c-2.7,0-4.9,2.2-4.9,4.9s2.2,4.9,4.9,4.9c2.7,0,4.9-2.2,4.9-4.9
			S375.3,374.4,372.6,374.4z"/>
		<path class="st0" d="M389.3,385c-3.1,0-5.7-2.6-5.7-5.7c0-3.1,2.6-5.7,5.7-5.7c3.1,0,5.7,2.6,5.7,5.7
			C394.9,382.4,392.4,385,389.3,385z M389.3,374.4c-2.7,0-4.9,2.2-4.9,4.9s2.2,4.9,4.9,4.9c2.7,0,4.9-2.2,4.9-4.9
			S392,374.4,389.3,374.4z"/>
		<path class="st0" d="M405.9,385c-3.1,0-5.7-2.6-5.7-5.7c0-3.1,2.6-5.7,5.7-5.7s5.7,2.6,5.7,5.7C411.6,382.4,409.1,385,405.9,385z
			 M405.9,374.4c-2.7,0-4.9,2.2-4.9,4.9s2.2,4.9,4.9,4.9s4.9-2.2,4.9-4.9S408.6,374.4,405.9,374.4z"/>
	</g>
	<g>
		<path class="st0" d="M189.1,401.7c-3.1,0-5.7-2.6-5.7-5.7c0-3.1,2.6-5.7,5.7-5.7c3.1,0,5.7,2.6,5.7,5.7
			C194.7,399.1,192.2,401.7,189.1,401.7z M189.1,391.1c-2.7,0-4.9,2.2-4.9,4.9s2.2,4.9,4.9,4.9s4.9-2.2,4.9-4.9
			S191.7,391.1,189.1,391.1z"/>
		<path class="st0" d="M205.7,401.7c-3.1,0-5.7-2.6-5.7-5.7c0-3.1,2.6-5.7,5.7-5.7c3.1,0,5.7,2.6,5.7,5.7
			C211.4,399.1,208.9,401.7,205.7,401.7z M205.7,391.1c-2.7,0-4.9,2.2-4.9,4.9s2.2,4.9,4.9,4.9s4.9-2.2,4.9-4.9
			S208.4,391.1,205.7,391.1z"/>
		<path class="st0" d="M222.4,401.7c-3.1,0-5.7-2.6-5.7-5.7c0-3.1,2.6-5.7,5.7-5.7c3.1,0,5.7,2.6,5.7,5.7
			C228.1,399.1,225.6,401.7,222.4,401.7z M222.4,391.1c-2.7,0-4.9,2.2-4.9,4.9s2.2,4.9,4.9,4.9s4.9-2.2,4.9-4.9
			S225.1,391.1,222.4,391.1z"/>
		<path class="st0" d="M239.1,401.7c-3.1,0-5.7-2.6-5.7-5.7c0-3.1,2.6-5.7,5.7-5.7c3.1,0,5.7,2.6,5.7,5.7
			C244.8,399.1,242.2,401.7,239.1,401.7z M239.1,391.1c-2.7,0-4.9,2.2-4.9,4.9s2.2,4.9,4.9,4.9s4.9-2.2,4.9-4.9
			S241.8,391.1,239.1,391.1z"/>
		<path class="st0" d="M255.8,401.7c-3.1,0-5.7-2.6-5.7-5.7c0-3.1,2.6-5.7,5.7-5.7s5.7,2.6,5.7,5.7
			C261.5,399.1,258.9,401.7,255.8,401.7z M255.8,391.1c-2.7,0-4.9,2.2-4.9,4.9s2.2,4.9,4.9,4.9s4.9-2.2,4.9-4.9
			S258.5,391.1,255.8,391.1z"/>
		<path class="st0" d="M272.5,401.7c-3.1,0-5.7-2.6-5.7-5.7c0-3.1,2.6-5.7,5.7-5.7c3.1,0,5.7,2.6,5.7,5.7
			C278.2,399.1,275.6,401.7,272.5,401.7z M272.5,391.1c-2.7,0-4.9,2.2-4.9,4.9s2.2,4.9,4.9,4.9c2.7,0,4.9-2.2,4.9-4.9
			S275.2,391.1,272.5,391.1z"/>
		<path class="st0" d="M289.2,401.7c-3.1,0-5.7-2.6-5.7-5.7c0-3.1,2.6-5.7,5.7-5.7s5.7,2.6,5.7,5.7
			C294.8,399.1,292.3,401.7,289.2,401.7z M289.2,391.1c-2.7,0-4.9,2.2-4.9,4.9s2.2,4.9,4.9,4.9s4.9-2.2,4.9-4.9
			S291.9,391.1,289.2,391.1z"/>
		<path class="st0" d="M305.8,401.7c-3.1,0-5.7-2.6-5.7-5.7c0-3.1,2.6-5.7,5.7-5.7s5.7,2.6,5.7,5.7
			C311.5,399.1,309,401.7,305.8,401.7z M305.8,391.1c-2.7,0-4.9,2.2-4.9,4.9s2.2,4.9,4.9,4.9s4.9-2.2,4.9-4.9
			S308.5,391.1,305.8,391.1z"/>
		<path class="st0" d="M322.5,401.7c-3.1,0-5.7-2.6-5.7-5.7c0-3.1,2.6-5.7,5.7-5.7c3.1,0,5.7,2.6,5.7,5.7
			C328.2,399.1,325.7,401.7,322.5,401.7z M322.5,391.1c-2.7,0-4.9,2.2-4.9,4.9s2.2,4.9,4.9,4.9c2.7,0,4.9-2.2,4.9-4.9
			S325.2,391.1,322.5,391.1z"/>
		<path class="st0" d="M339.2,401.7c-3.1,0-5.7-2.6-5.7-5.7c0-3.1,2.6-5.7,5.7-5.7s5.7,2.6,5.7,5.7
			C344.9,399.1,342.3,401.7,339.2,401.7z M339.2,391.1c-2.7,0-4.9,2.2-4.9,4.9s2.2,4.9,4.9,4.9s4.9-2.2,4.9-4.9
			S341.9,391.1,339.2,391.1z"/>
		<path class="st0" d="M355.9,401.7c-3.1,0-5.7-2.6-5.7-5.7c0-3.1,2.6-5.7,5.7-5.7s5.7,2.6,5.7,5.7
			C361.6,399.1,359,401.7,355.9,401.7z M355.9,391.1c-2.7,0-4.9,2.2-4.9,4.9s2.2,4.9,4.9,4.9s4.9-2.2,4.9-4.9
			S358.6,391.1,355.9,391.1z"/>
		<path class="st0" d="M372.6,401.7c-3.1,0-5.7-2.6-5.7-5.7c0-3.1,2.6-5.7,5.7-5.7c3.1,0,5.7,2.6,5.7,5.7
			C378.3,399.1,375.7,401.7,372.6,401.7z M372.6,391.1c-2.7,0-4.9,2.2-4.9,4.9s2.2,4.9,4.9,4.9c2.7,0,4.9-2.2,4.9-4.9
			S375.3,391.1,372.6,391.1z"/>
		<path class="st0" d="M389.3,401.7c-3.1,0-5.7-2.6-5.7-5.7c0-3.1,2.6-5.7,5.7-5.7c3.1,0,5.7,2.6,5.7,5.7
			C394.9,399.1,392.4,401.7,389.3,401.7z M389.3,391.1c-2.7,0-4.9,2.2-4.9,4.9s2.2,4.9,4.9,4.9c2.7,0,4.9-2.2,4.9-4.9
			S392,391.1,389.3,391.1z"/>
		<path class="st0" d="M405.9,401.7c-3.1,0-5.7-2.6-5.7-5.7c0-3.1,2.6-5.7,5.7-5.7s5.7,2.6,5.7,5.7
			C411.6,399.1,409.1,401.7,405.9,401.7z M405.9,391.1c-2.7,0-4.9,2.2-4.9,4.9s2.2,4.9,4.9,4.9s4.9-2.2,4.9-4.9
			S408.6,391.1,405.9,391.1z"/>
	</g>
	<g>
		<path class="st0" d="M189.1,418.3c-3.1,0-5.7-2.6-5.7-5.7c0-3.1,2.6-5.7,5.7-5.7c3.1,0,5.7,2.6,5.7,5.7
			C194.7,415.8,192.2,418.3,189.1,418.3z M189.1,407.8c-2.7,0-4.9,2.2-4.9,4.9s2.2,4.9,4.9,4.9s4.9-2.2,4.9-4.9
			S191.7,407.8,189.1,407.8z"/>
		<path class="st0" d="M205.7,418.3c-3.1,0-5.7-2.6-5.7-5.7c0-3.1,2.6-5.7,5.7-5.7c3.1,0,5.7,2.6,5.7,5.7
			C211.4,415.8,208.9,418.3,205.7,418.3z M205.7,407.8c-2.7,0-4.9,2.2-4.9,4.9s2.2,4.9,4.9,4.9s4.9-2.2,4.9-4.9
			S208.4,407.8,205.7,407.8z"/>
		<path class="st0" d="M222.4,418.3c-3.1,0-5.7-2.6-5.7-5.7c0-3.1,2.6-5.7,5.7-5.7c3.1,0,5.7,2.6,5.7,5.7
			C228.1,415.8,225.6,418.3,222.4,418.3z M222.4,407.8c-2.7,0-4.9,2.2-4.9,4.9s2.2,4.9,4.9,4.9s4.9-2.2,4.9-4.9
			S225.1,407.8,222.4,407.8z"/>
		<path class="st0" d="M239.1,418.3c-3.1,0-5.7-2.6-5.7-5.7c0-3.1,2.6-5.7,5.7-5.7c3.1,0,5.7,2.6,5.7,5.7
			C244.8,415.8,242.2,418.3,239.1,418.3z M239.1,407.8c-2.7,0-4.9,2.2-4.9,4.9s2.2,4.9,4.9,4.9s4.9-2.2,4.9-4.9
			S241.8,407.8,239.1,407.8z"/>
		<path class="st0" d="M255.8,418.3c-3.1,0-5.7-2.6-5.7-5.7c0-3.1,2.6-5.7,5.7-5.7s5.7,2.6,5.7,5.7
			C261.5,415.8,258.9,418.3,255.8,418.3z M255.8,407.8c-2.7,0-4.9,2.2-4.9,4.9s2.2,4.9,4.9,4.9s4.9-2.2,4.9-4.9
			S258.5,407.8,255.8,407.8z"/>
		<path class="st0" d="M272.5,418.3c-3.1,0-5.7-2.6-5.7-5.7c0-3.1,2.6-5.7,5.7-5.7c3.1,0,5.7,2.6,5.7,5.7
			C278.2,415.8,275.6,418.3,272.5,418.3z M272.5,407.8c-2.7,0-4.9,2.2-4.9,4.9s2.2,4.9,4.9,4.9c2.7,0,4.9-2.2,4.9-4.9
			S275.2,407.8,272.5,407.8z"/>
		<path class="st0" d="M289.2,418.3c-3.1,0-5.7-2.6-5.7-5.7c0-3.1,2.6-5.7,5.7-5.7s5.7,2.6,5.7,5.7
			C294.8,415.8,292.3,418.3,289.2,418.3z M289.2,407.8c-2.7,0-4.9,2.2-4.9,4.9s2.2,4.9,4.9,4.9s4.9-2.2,4.9-4.9
			S291.9,407.8,289.2,407.8z"/>
		<path class="st0" d="M305.8,418.3c-3.1,0-5.7-2.6-5.7-5.7c0-3.1,2.6-5.7,5.7-5.7s5.7,2.6,5.7,5.7
			C311.5,415.8,309,418.3,305.8,418.3z M305.8,407.8c-2.7,0-4.9,2.2-4.9,4.9s2.2,4.9,4.9,4.9s4.9-2.2,4.9-4.9
			S308.5,407.8,305.8,407.8z"/>
		<path class="st0" d="M322.5,418.3c-3.1,0-5.7-2.6-5.7-5.7c0-3.1,2.6-5.7,5.7-5.7c3.1,0,5.7,2.6,5.7,5.7
			C328.2,415.8,325.7,418.3,322.5,418.3z M322.5,407.8c-2.7,0-4.9,2.2-4.9,4.9s2.2,4.9,4.9,4.9c2.7,0,4.9-2.2,4.9-4.9
			S325.2,407.8,322.5,407.8z"/>
		<path class="st0" d="M339.2,418.3c-3.1,0-5.7-2.6-5.7-5.7c0-3.1,2.6-5.7,5.7-5.7s5.7,2.6,5.7,5.7
			C344.9,415.8,342.3,418.3,339.2,418.3z M339.2,407.8c-2.7,0-4.9,2.2-4.9,4.9s2.2,4.9,4.9,4.9s4.9-2.2,4.9-4.9
			S341.9,407.8,339.2,407.8z"/>
		<path class="st0" d="M355.9,418.3c-3.1,0-5.7-2.6-5.7-5.7c0-3.1,2.6-5.7,5.7-5.7s5.7,2.6,5.7,5.7
			C361.6,415.8,359,418.3,355.9,418.3z M355.9,407.8c-2.7,0-4.9,2.2-4.9,4.9s2.2,4.9,4.9,4.9s4.9-2.2,4.9-4.9
			S358.6,407.8,355.9,407.8z"/>
		<path class="st0" d="M372.6,418.3c-3.1,0-5.7-2.6-5.7-5.7c0-3.1,2.6-5.7,5.7-5.7c3.1,0,5.7,2.6,5.7,5.7
			C378.3,415.8,375.7,418.3,372.6,418.3z M372.6,407.8c-2.7,0-4.9,2.2-4.9,4.9s2.2,4.9,4.9,4.9c2.7,0,4.9-2.2,4.9-4.9
			S375.3,407.8,372.6,407.8z"/>
		<path class="st0" d="M389.3,418.3c-3.1,0-5.7-2.6-5.7-5.7c0-3.1,2.6-5.7,5.7-5.7c3.1,0,5.7,2.6,5.7,5.7
			C394.9,415.8,392.4,418.3,389.3,418.3z M389.3,407.8c-2.7,0-4.9,2.2-4.9,4.9s2.2,4.9,4.9,4.9c2.7,0,4.9-2.2,4.9-4.9
			S392,407.8,389.3,407.8z"/>
		<path class="st0" d="M405.9,418.3c-3.1,0-5.7-2.6-5.7-5.7c0-3.1,2.6-5.7,5.7-5.7s5.7,2.6,5.7,5.7
			C411.6,415.8,409.1,418.3,405.9,418.3z M405.9,407.8c-2.7,0-4.9,2.2-4.9,4.9s2.2,4.9,4.9,4.9s4.9-2.2,4.9-4.9
			S408.6,407.8,405.9,407.8z"/>
	</g>
	<g>
		<path class="st0" d="M189.1,435c-3.1,0-5.7-2.6-5.7-5.7c0-3.1,2.6-5.7,5.7-5.7c3.1,0,5.7,2.6,5.7,5.7
			C194.7,432.5,192.2,435,189.1,435z M189.1,424.5c-2.7,0-4.9,2.2-4.9,4.9s2.2,4.9,4.9,4.9s4.9-2.2,4.9-4.9S191.7,424.5,189.1,424.5
			z"/>
		<path class="st0" d="M205.7,435c-3.1,0-5.7-2.6-5.7-5.7c0-3.1,2.6-5.7,5.7-5.7c3.1,0,5.7,2.6,5.7,5.7
			C211.4,432.5,208.9,435,205.7,435z M205.7,424.5c-2.7,0-4.9,2.2-4.9,4.9s2.2,4.9,4.9,4.9s4.9-2.2,4.9-4.9S208.4,424.5,205.7,424.5
			z"/>
		<path class="st0" d="M222.4,435c-3.1,0-5.7-2.6-5.7-5.7c0-3.1,2.6-5.7,5.7-5.7c3.1,0,5.7,2.6,5.7,5.7
			C228.1,432.5,225.6,435,222.4,435z M222.4,424.5c-2.7,0-4.9,2.2-4.9,4.9s2.2,4.9,4.9,4.9s4.9-2.2,4.9-4.9S225.1,424.5,222.4,424.5
			z"/>
		<path class="st0" d="M239.1,435c-3.1,0-5.7-2.6-5.7-5.7c0-3.1,2.6-5.7,5.7-5.7c3.1,0,5.7,2.6,5.7,5.7
			C244.8,432.5,242.2,435,239.1,435z M239.1,424.5c-2.7,0-4.9,2.2-4.9,4.9s2.2,4.9,4.9,4.9s4.9-2.2,4.9-4.9S241.8,424.5,239.1,424.5
			z"/>
		<path class="st0" d="M255.8,435c-3.1,0-5.7-2.6-5.7-5.7c0-3.1,2.6-5.7,5.7-5.7s5.7,2.6,5.7,5.7C261.5,432.5,258.9,435,255.8,435z
			 M255.8,424.5c-2.7,0-4.9,2.2-4.9,4.9s2.2,4.9,4.9,4.9s4.9-2.2,4.9-4.9S258.5,424.5,255.8,424.5z"/>
		<path class="st0" d="M272.5,435c-3.1,0-5.7-2.6-5.7-5.7c0-3.1,2.6-5.7,5.7-5.7c3.1,0,5.7,2.6,5.7,5.7
			C278.2,432.5,275.6,435,272.5,435z M272.5,424.5c-2.7,0-4.9,2.2-4.9,4.9s2.2,4.9,4.9,4.9c2.7,0,4.9-2.2,4.9-4.9
			S275.2,424.5,272.5,424.5z"/>
		<path class="st0" d="M289.2,435c-3.1,0-5.7-2.6-5.7-5.7c0-3.1,2.6-5.7,5.7-5.7s5.7,2.6,5.7,5.7C294.8,432.5,292.3,435,289.2,435z
			 M289.2,424.5c-2.7,0-4.9,2.2-4.9,4.9s2.2,4.9,4.9,4.9s4.9-2.2,4.9-4.9S291.9,424.5,289.2,424.5z"/>
		<path class="st0" d="M305.8,435c-3.1,0-5.7-2.6-5.7-5.7c0-3.1,2.6-5.7,5.7-5.7s5.7,2.6,5.7,5.7C311.5,432.5,309,435,305.8,435z
			 M305.8,424.5c-2.7,0-4.9,2.2-4.9,4.9s2.2,4.9,4.9,4.9s4.9-2.2,4.9-4.9S308.5,424.5,305.8,424.5z"/>
		<path class="st0" d="M322.5,435c-3.1,0-5.7-2.6-5.7-5.7c0-3.1,2.6-5.7,5.7-5.7c3.1,0,5.7,2.6,5.7,5.7
			C328.2,432.5,325.7,435,322.5,435z M322.5,424.5c-2.7,0-4.9,2.2-4.9,4.9s2.2,4.9,4.9,4.9c2.7,0,4.9-2.2,4.9-4.9
			S325.2,424.5,322.5,424.5z"/>
		<path class="st0" d="M339.2,435c-3.1,0-5.7-2.6-5.7-5.7c0-3.1,2.6-5.7,5.7-5.7s5.7,2.6,5.7,5.7C344.9,432.5,342.3,435,339.2,435z
			 M339.2,424.5c-2.7,0-4.9,2.2-4.9,4.9s2.2,4.9,4.9,4.9s4.9-2.2,4.9-4.9S341.9,424.5,339.2,424.5z"/>
		<path class="st0" d="M355.9,435c-3.1,0-5.7-2.6-5.7-5.7c0-3.1,2.6-5.7,5.7-5.7s5.7,2.6,5.7,5.7C361.6,432.5,359,435,355.9,435z
			 M355.9,424.5c-2.7,0-4.9,2.2-4.9,4.9s2.2,4.9,4.9,4.9s4.9-2.2,4.9-4.9S358.6,424.5,355.9,424.5z"/>
		<path class="st0" d="M372.6,435c-3.1,0-5.7-2.6-5.7-5.7c0-3.1,2.6-5.7,5.7-5.7c3.1,0,5.7,2.6,5.7,5.7
			C378.3,432.5,375.7,435,372.6,435z M372.6,424.5c-2.7,0-4.9,2.2-4.9,4.9s2.2,4.9,4.9,4.9c2.7,0,4.9-2.2,4.9-4.9
			S375.3,424.5,372.6,424.5z"/>
		<path class="st0" d="M389.3,435c-3.1,0-5.7-2.6-5.7-5.7c0-3.1,2.6-5.7,5.7-5.7c3.1,0,5.7,2.6,5.7,5.7
			C394.9,432.5,392.4,435,389.3,435z M389.3,424.5c-2.7,0-4.9,2.2-4.9,4.9s2.2,4.9,4.9,4.9c2.7,0,4.9-2.2,4.9-4.9
			S392,424.5,389.3,424.5z"/>
		<path class="st0" d="M405.9,435c-3.1,0-5.7-2.6-5.7-5.7c0-3.1,2.6-5.7,5.7-5.7s5.7,2.6,5.7,5.7C411.6,432.5,409.1,435,405.9,435z
			 M405.9,424.5c-2.7,0-4.9,2.2-4.9,4.9s2.2,4.9,4.9,4.9s4.9-2.2,4.9-4.9S408.6,424.5,405.9,424.5z"/>
	</g>
	<g>
		<path class="st0" d="M189.1,451.7c-3.1,0-5.7-2.6-5.7-5.7c0-3.1,2.6-5.7,5.7-5.7c3.1,0,5.7,2.6,5.7,5.7
			C194.7,449.2,192.2,451.7,189.1,451.7z M189.1,441.1c-2.7,0-4.9,2.2-4.9,4.9s2.2,4.9,4.9,4.9s4.9-2.2,4.9-4.9
			S191.7,441.1,189.1,441.1z"/>
		<path class="st0" d="M205.7,451.7c-3.1,0-5.7-2.6-5.7-5.7c0-3.1,2.6-5.7,5.7-5.7c3.1,0,5.7,2.6,5.7,5.7
			C211.4,449.2,208.9,451.7,205.7,451.7z M205.7,441.1c-2.7,0-4.9,2.2-4.9,4.9s2.2,4.9,4.9,4.9s4.9-2.2,4.9-4.9
			S208.4,441.1,205.7,441.1z"/>
		<path class="st0" d="M222.4,451.7c-3.1,0-5.7-2.6-5.7-5.7c0-3.1,2.6-5.7,5.7-5.7c3.1,0,5.7,2.6,5.7,5.7
			C228.1,449.2,225.6,451.7,222.4,451.7z M222.4,441.1c-2.7,0-4.9,2.2-4.9,4.9s2.2,4.9,4.9,4.9s4.9-2.2,4.9-4.9
			S225.1,441.1,222.4,441.1z"/>
		<path class="st0" d="M239.1,451.7c-3.1,0-5.7-2.6-5.7-5.7c0-3.1,2.6-5.7,5.7-5.7c3.1,0,5.7,2.6,5.7,5.7
			C244.8,449.2,242.2,451.7,239.1,451.7z M239.1,441.1c-2.7,0-4.9,2.2-4.9,4.9s2.2,4.9,4.9,4.9s4.9-2.2,4.9-4.9
			S241.8,441.1,239.1,441.1z"/>
		<path class="st0" d="M255.8,451.7c-3.1,0-5.7-2.6-5.7-5.7c0-3.1,2.6-5.7,5.7-5.7s5.7,2.6,5.7,5.7
			C261.5,449.2,258.9,451.7,255.8,451.7z M255.8,441.1c-2.7,0-4.9,2.2-4.9,4.9s2.2,4.9,4.9,4.9s4.9-2.2,4.9-4.9
			S258.5,441.1,255.8,441.1z"/>
		<path class="st0" d="M272.5,451.7c-3.1,0-5.7-2.6-5.7-5.7c0-3.1,2.6-5.7,5.7-5.7c3.1,0,5.7,2.6,5.7,5.7
			C278.2,449.2,275.6,451.7,272.5,451.7z M272.5,441.1c-2.7,0-4.9,2.2-4.9,4.9s2.2,4.9,4.9,4.9c2.7,0,4.9-2.2,4.9-4.9
			S275.2,441.1,272.5,441.1z"/>
		<path class="st0" d="M289.2,451.7c-3.1,0-5.7-2.6-5.7-5.7c0-3.1,2.6-5.7,5.7-5.7s5.7,2.6,5.7,5.7
			C294.8,449.2,292.3,451.7,289.2,451.7z M289.2,441.1c-2.7,0-4.9,2.2-4.9,4.9s2.2,4.9,4.9,4.9s4.9-2.2,4.9-4.9
			S291.9,441.1,289.2,441.1z"/>
		<path class="st0" d="M305.8,451.7c-3.1,0-5.7-2.6-5.7-5.7c0-3.1,2.6-5.7,5.7-5.7s5.7,2.6,5.7,5.7
			C311.5,449.2,309,451.7,305.8,451.7z M305.8,441.1c-2.7,0-4.9,2.2-4.9,4.9s2.2,4.9,4.9,4.9s4.9-2.2,4.9-4.9
			S308.5,441.1,305.8,441.1z"/>
		<path class="st0" d="M322.5,451.7c-3.1,0-5.7-2.6-5.7-5.7c0-3.1,2.6-5.7,5.7-5.7c3.1,0,5.7,2.6,5.7,5.7
			C328.2,449.2,325.7,451.7,322.5,451.7z M322.5,441.1c-2.7,0-4.9,2.2-4.9,4.9s2.2,4.9,4.9,4.9c2.7,0,4.9-2.2,4.9-4.9
			S325.2,441.1,322.5,441.1z"/>
		<path class="st0" d="M339.2,451.7c-3.1,0-5.7-2.6-5.7-5.7c0-3.1,2.6-5.7,5.7-5.7s5.7,2.6,5.7,5.7
			C344.9,449.2,342.3,451.7,339.2,451.7z M339.2,441.1c-2.7,0-4.9,2.2-4.9,4.9s2.2,4.9,4.9,4.9s4.9-2.2,4.9-4.9
			S341.9,441.1,339.2,441.1z"/>
		<path class="st0" d="M355.9,451.7c-3.1,0-5.7-2.6-5.7-5.7c0-3.1,2.6-5.7,5.7-5.7s5.7,2.6,5.7,5.7
			C361.6,449.2,359,451.7,355.9,451.7z M355.9,441.1c-2.7,0-4.9,2.2-4.9,4.9s2.2,4.9,4.9,4.9s4.9-2.2,4.9-4.9
			S358.6,441.1,355.9,441.1z"/>
		<path class="st0" d="M372.6,451.7c-3.1,0-5.7-2.6-5.7-5.7c0-3.1,2.6-5.7,5.7-5.7c3.1,0,5.7,2.6,5.7,5.7
			C378.3,449.2,375.7,451.7,372.6,451.7z M372.6,441.1c-2.7,0-4.9,2.2-4.9,4.9s2.2,4.9,4.9,4.9c2.7,0,4.9-2.2,4.9-4.9
			S375.3,441.1,372.6,441.1z"/>
		<path class="st0" d="M389.3,451.7c-3.1,0-5.7-2.6-5.7-5.7c0-3.1,2.6-5.7,5.7-5.7c3.1,0,5.7,2.6,5.7,5.7
			C394.9,449.2,392.4,451.7,389.3,451.7z M389.3,441.1c-2.7,0-4.9,2.2-4.9,4.9s2.2,4.9,4.9,4.9c2.7,0,4.9-2.2,4.9-4.9
			S392,441.1,389.3,441.1z"/>
		<path class="st0" d="M405.9,451.7c-3.1,0-5.7-2.6-5.7-5.7c0-3.1,2.6-5.7,5.7-5.7s5.7,2.6,5.7,5.7
			C411.6,449.2,409.1,451.7,405.9,451.7z M405.9,441.1c-2.7,0-4.9,2.2-4.9,4.9s2.2,4.9,4.9,4.9s4.9-2.2,4.9-4.9
			S408.6,441.1,405.9,441.1z"/>
	</g>
	<g>
		<path class="st0" d="M189.1,468.4c-3.1,0-5.7-2.6-5.7-5.7c0-3.1,2.6-5.7,5.7-5.7c3.1,0,5.7,2.6,5.7,5.7
			C194.7,465.8,192.2,468.4,189.1,468.4z M189.1,457.8c-2.7,0-4.9,2.2-4.9,4.9s2.2,4.9,4.9,4.9s4.9-2.2,4.9-4.9
			S191.7,457.8,189.1,457.8z"/>
		<path class="st0" d="M205.7,468.4c-3.1,0-5.7-2.6-5.7-5.7c0-3.1,2.6-5.7,5.7-5.7c3.1,0,5.7,2.6,5.7,5.7
			C211.4,465.8,208.9,468.4,205.7,468.4z M205.7,457.8c-2.7,0-4.9,2.2-4.9,4.9s2.2,4.9,4.9,4.9s4.9-2.2,4.9-4.9
			S208.4,457.8,205.7,457.8z"/>
		<path class="st0" d="M222.4,468.4c-3.1,0-5.7-2.6-5.7-5.7c0-3.1,2.6-5.7,5.7-5.7c3.1,0,5.7,2.6,5.7,5.7
			C228.1,465.8,225.6,468.4,222.4,468.4z M222.4,457.8c-2.7,0-4.9,2.2-4.9,4.9s2.2,4.9,4.9,4.9s4.9-2.2,4.9-4.9
			S225.1,457.8,222.4,457.8z"/>
		<path class="st0" d="M239.1,468.4c-3.1,0-5.7-2.6-5.7-5.7c0-3.1,2.6-5.7,5.7-5.7c3.1,0,5.7,2.6,5.7,5.7
			C244.8,465.8,242.2,468.4,239.1,468.4z M239.1,457.8c-2.7,0-4.9,2.2-4.9,4.9s2.2,4.9,4.9,4.9s4.9-2.2,4.9-4.9
			S241.8,457.8,239.1,457.8z"/>
		<path class="st0" d="M255.8,468.4c-3.1,0-5.7-2.6-5.7-5.7c0-3.1,2.6-5.7,5.7-5.7s5.7,2.6,5.7,5.7
			C261.5,465.8,258.9,468.4,255.8,468.4z M255.8,457.8c-2.7,0-4.9,2.2-4.9,4.9s2.2,4.9,4.9,4.9s4.9-2.2,4.9-4.9
			S258.5,457.8,255.8,457.8z"/>
		<path class="st0" d="M272.5,468.4c-3.1,0-5.7-2.6-5.7-5.7c0-3.1,2.6-5.7,5.7-5.7c3.1,0,5.7,2.6,5.7,5.7
			C278.2,465.8,275.6,468.4,272.5,468.4z M272.5,457.8c-2.7,0-4.9,2.2-4.9,4.9s2.2,4.9,4.9,4.9c2.7,0,4.9-2.2,4.9-4.9
			S275.2,457.8,272.5,457.8z"/>
		<path class="st0" d="M289.2,468.4c-3.1,0-5.7-2.6-5.7-5.7c0-3.1,2.6-5.7,5.7-5.7s5.7,2.6,5.7,5.7
			C294.8,465.8,292.3,468.4,289.2,468.4z M289.2,457.8c-2.7,0-4.9,2.2-4.9,4.9s2.2,4.9,4.9,4.9s4.9-2.2,4.9-4.9
			S291.9,457.8,289.2,457.8z"/>
		<path class="st0" d="M305.8,468.4c-3.1,0-5.7-2.6-5.7-5.7c0-3.1,2.6-5.7,5.7-5.7s5.7,2.6,5.7,5.7
			C311.5,465.8,309,468.4,305.8,468.4z M305.8,457.8c-2.7,0-4.9,2.2-4.9,4.9s2.2,4.9,4.9,4.9s4.9-2.2,4.9-4.9
			S308.5,457.8,305.8,457.8z"/>
		<path class="st0" d="M322.5,468.4c-3.1,0-5.7-2.6-5.7-5.7c0-3.1,2.6-5.7,5.7-5.7c3.1,0,5.7,2.6,5.7,5.7
			C328.2,465.8,325.7,468.4,322.5,468.4z M322.5,457.8c-2.7,0-4.9,2.2-4.9,4.9s2.2,4.9,4.9,4.9c2.7,0,4.9-2.2,4.9-4.9
			S325.2,457.8,322.5,457.8z"/>
		<path class="st0" d="M339.2,468.4c-3.1,0-5.7-2.6-5.7-5.7c0-3.1,2.6-5.7,5.7-5.7s5.7,2.6,5.7,5.7
			C344.9,465.8,342.3,468.4,339.2,468.4z M339.2,457.8c-2.7,0-4.9,2.2-4.9,4.9s2.2,4.9,4.9,4.9s4.9-2.2,4.9-4.9
			S341.9,457.8,339.2,457.8z"/>
		<path class="st0" d="M355.9,468.4c-3.1,0-5.7-2.6-5.7-5.7c0-3.1,2.6-5.7,5.7-5.7s5.7,2.6,5.7,5.7
			C361.6,465.8,359,468.4,355.9,468.4z M355.9,457.8c-2.7,0-4.9,2.2-4.9,4.9s2.2,4.9,4.9,4.9s4.9-2.2,4.9-4.9
			S358.6,457.8,355.9,457.8z"/>
		<path class="st0" d="M372.6,468.4c-3.1,0-5.7-2.6-5.7-5.7c0-3.1,2.6-5.7,5.7-5.7c3.1,0,5.7,2.6,5.7,5.7
			C378.3,465.8,375.7,468.4,372.6,468.4z M372.6,457.8c-2.7,0-4.9,2.2-4.9,4.9s2.2,4.9,4.9,4.9c2.7,0,4.9-2.2,4.9-4.9
			S375.3,457.8,372.6,457.8z"/>
		<path class="st0" d="M389.3,468.4c-3.1,0-5.7-2.6-5.7-5.7c0-3.1,2.6-5.7,5.7-5.7c3.1,0,5.7,2.6,5.7,5.7
			C394.9,465.8,392.4,468.4,389.3,468.4z M389.3,457.8c-2.7,0-4.9,2.2-4.9,4.9s2.2,4.9,4.9,4.9c2.7,0,4.9-2.2,4.9-4.9
			S392,457.8,389.3,457.8z"/>
		<path class="st0" d="M405.9,468.4c-3.1,0-5.7-2.6-5.7-5.7c0-3.1,2.6-5.7,5.7-5.7s5.7,2.6,5.7,5.7
			C411.6,465.8,409.1,468.4,405.9,468.4z M405.9,457.8c-2.7,0-4.9,2.2-4.9,4.9s2.2,4.9,4.9,4.9s4.9-2.2,4.9-4.9
			S408.6,457.8,405.9,457.8z"/>
	</g>
	<g>
		<path class="st0" d="M189.1,485.1c-3.1,0-5.7-2.6-5.7-5.7s2.6-5.7,5.7-5.7c3.1,0,5.7,2.6,5.7,5.7S192.2,485.1,189.1,485.1z
			 M189.1,474.5c-2.7,0-4.9,2.2-4.9,4.9s2.2,4.9,4.9,4.9s4.9-2.2,4.9-4.9S191.7,474.5,189.1,474.5z"/>
		<path class="st0" d="M205.7,485.1c-3.1,0-5.7-2.6-5.7-5.7s2.6-5.7,5.7-5.7c3.1,0,5.7,2.6,5.7,5.7S208.9,485.1,205.7,485.1z
			 M205.7,474.5c-2.7,0-4.9,2.2-4.9,4.9s2.2,4.9,4.9,4.9s4.9-2.2,4.9-4.9S208.4,474.5,205.7,474.5z"/>
		<path class="st0" d="M222.4,485.1c-3.1,0-5.7-2.6-5.7-5.7s2.6-5.7,5.7-5.7c3.1,0,5.7,2.6,5.7,5.7S225.6,485.1,222.4,485.1z
			 M222.4,474.5c-2.7,0-4.9,2.2-4.9,4.9s2.2,4.9,4.9,4.9s4.9-2.2,4.9-4.9S225.1,474.5,222.4,474.5z"/>
		<path class="st0" d="M239.1,485.1c-3.1,0-5.7-2.6-5.7-5.7s2.6-5.7,5.7-5.7c3.1,0,5.7,2.6,5.7,5.7S242.2,485.1,239.1,485.1z
			 M239.1,474.5c-2.7,0-4.9,2.2-4.9,4.9s2.2,4.9,4.9,4.9s4.9-2.2,4.9-4.9S241.8,474.5,239.1,474.5z"/>
		<path class="st0" d="M255.8,485.1c-3.1,0-5.7-2.6-5.7-5.7s2.6-5.7,5.7-5.7s5.7,2.6,5.7,5.7S258.9,485.1,255.8,485.1z M255.8,474.5
			c-2.7,0-4.9,2.2-4.9,4.9s2.2,4.9,4.9,4.9s4.9-2.2,4.9-4.9S258.5,474.5,255.8,474.5z"/>
		<path class="st0" d="M272.5,485.1c-3.1,0-5.7-2.6-5.7-5.7s2.6-5.7,5.7-5.7c3.1,0,5.7,2.6,5.7,5.7S275.6,485.1,272.5,485.1z
			 M272.5,474.5c-2.7,0-4.9,2.2-4.9,4.9s2.2,4.9,4.9,4.9c2.7,0,4.9-2.2,4.9-4.9S275.2,474.5,272.5,474.5z"/>
		<path class="st0" d="M289.2,485.1c-3.1,0-5.7-2.6-5.7-5.7s2.6-5.7,5.7-5.7s5.7,2.6,5.7,5.7S292.3,485.1,289.2,485.1z M289.2,474.5
			c-2.7,0-4.9,2.2-4.9,4.9s2.2,4.9,4.9,4.9s4.9-2.2,4.9-4.9S291.9,474.5,289.2,474.5z"/>
		<path class="st0" d="M305.8,485.1c-3.1,0-5.7-2.6-5.7-5.7s2.6-5.7,5.7-5.7s5.7,2.6,5.7,5.7S309,485.1,305.8,485.1z M305.8,474.5
			c-2.7,0-4.9,2.2-4.9,4.9s2.2,4.9,4.9,4.9s4.9-2.2,4.9-4.9S308.5,474.5,305.8,474.5z"/>
		<path class="st0" d="M322.5,485.1c-3.1,0-5.7-2.6-5.7-5.7s2.6-5.7,5.7-5.7c3.1,0,5.7,2.6,5.7,5.7S325.7,485.1,322.5,485.1z
			 M322.5,474.5c-2.7,0-4.9,2.2-4.9,4.9s2.2,4.9,4.9,4.9c2.7,0,4.9-2.2,4.9-4.9S325.2,474.5,322.5,474.5z"/>
		<path class="st0" d="M339.2,485.1c-3.1,0-5.7-2.6-5.7-5.7s2.6-5.7,5.7-5.7s5.7,2.6,5.7,5.7S342.3,485.1,339.2,485.1z M339.2,474.5
			c-2.7,0-4.9,2.2-4.9,4.9s2.2,4.9,4.9,4.9s4.9-2.2,4.9-4.9S341.9,474.5,339.2,474.5z"/>
		<path class="st0" d="M355.9,485.1c-3.1,0-5.7-2.6-5.7-5.7s2.6-5.7,5.7-5.7s5.7,2.6,5.7,5.7S359,485.1,355.9,485.1z M355.9,474.5
			c-2.7,0-4.9,2.2-4.9,4.9s2.2,4.9,4.9,4.9s4.9-2.2,4.9-4.9S358.6,474.5,355.9,474.5z"/>
		<path class="st0" d="M372.6,485.1c-3.1,0-5.7-2.6-5.7-5.7s2.6-5.7,5.7-5.7c3.1,0,5.7,2.6,5.7,5.7S375.7,485.1,372.6,485.1z
			 M372.6,474.5c-2.7,0-4.9,2.2-4.9,4.9s2.2,4.9,4.9,4.9c2.7,0,4.9-2.2,4.9-4.9S375.3,474.5,372.6,474.5z"/>
		<path class="st0" d="M389.3,485.1c-3.1,0-5.7-2.6-5.7-5.7s2.6-5.7,5.7-5.7c3.1,0,5.7,2.6,5.7,5.7S392.4,485.1,389.3,485.1z
			 M389.3,474.5c-2.7,0-4.9,2.2-4.9,4.9s2.2,4.9,4.9,4.9c2.7,0,4.9-2.2,4.9-4.9S392,474.5,389.3,474.5z"/>
		<path class="st0" d="M405.9,485.1c-3.1,0-5.7-2.6-5.7-5.7s2.6-5.7,5.7-5.7s5.7,2.6,5.7,5.7S409.1,485.1,405.9,485.1z M405.9,474.5
			c-2.7,0-4.9,2.2-4.9,4.9s2.2,4.9,4.9,4.9s4.9-2.2,4.9-4.9S408.6,474.5,405.9,474.5z"/>
	</g>
	<g>
		<path class="st0" d="M189.1,501.8c-3.1,0-5.7-2.6-5.7-5.7s2.6-5.7,5.7-5.7c3.1,0,5.7,2.6,5.7,5.7S192.2,501.8,189.1,501.8z
			 M189.1,491.2c-2.7,0-4.9,2.2-4.9,4.9s2.2,4.9,4.9,4.9s4.9-2.2,4.9-4.9S191.7,491.2,189.1,491.2z"/>
		<path class="st0" d="M205.7,501.8c-3.1,0-5.7-2.6-5.7-5.7s2.6-5.7,5.7-5.7c3.1,0,5.7,2.6,5.7,5.7S208.9,501.8,205.7,501.8z
			 M205.7,491.2c-2.7,0-4.9,2.2-4.9,4.9s2.2,4.9,4.9,4.9s4.9-2.2,4.9-4.9S208.4,491.2,205.7,491.2z"/>
		<path class="st0" d="M222.4,501.8c-3.1,0-5.7-2.6-5.7-5.7s2.6-5.7,5.7-5.7c3.1,0,5.7,2.6,5.7,5.7S225.6,501.8,222.4,501.8z
			 M222.4,491.2c-2.7,0-4.9,2.2-4.9,4.9s2.2,4.9,4.9,4.9s4.9-2.2,4.9-4.9S225.1,491.2,222.4,491.2z"/>
		<path class="st0" d="M239.1,501.8c-3.1,0-5.7-2.6-5.7-5.7s2.6-5.7,5.7-5.7c3.1,0,5.7,2.6,5.7,5.7S242.2,501.8,239.1,501.8z
			 M239.1,491.2c-2.7,0-4.9,2.2-4.9,4.9s2.2,4.9,4.9,4.9s4.9-2.2,4.9-4.9S241.8,491.2,239.1,491.2z"/>
		<path class="st0" d="M255.8,501.8c-3.1,0-5.7-2.6-5.7-5.7s2.6-5.7,5.7-5.7s5.7,2.6,5.7,5.7S258.9,501.8,255.8,501.8z M255.8,491.2
			c-2.7,0-4.9,2.2-4.9,4.9s2.2,4.9,4.9,4.9s4.9-2.2,4.9-4.9S258.5,491.2,255.8,491.2z"/>
		<path class="st0" d="M272.5,501.8c-3.1,0-5.7-2.6-5.7-5.7s2.6-5.7,5.7-5.7c3.1,0,5.7,2.6,5.7,5.7S275.6,501.8,272.5,501.8z
			 M272.5,491.2c-2.7,0-4.9,2.2-4.9,4.9s2.2,4.9,4.9,4.9c2.7,0,4.9-2.2,4.9-4.9S275.2,491.2,272.5,491.2z"/>
		<path class="st0" d="M289.2,501.8c-3.1,0-5.7-2.6-5.7-5.7s2.6-5.7,5.7-5.7s5.7,2.6,5.7,5.7S292.3,501.8,289.2,501.8z M289.2,491.2
			c-2.7,0-4.9,2.2-4.9,4.9s2.2,4.9,4.9,4.9s4.9-2.2,4.9-4.9S291.9,491.2,289.2,491.2z"/>
		<path class="st0" d="M305.8,501.8c-3.1,0-5.7-2.6-5.7-5.7s2.6-5.7,5.7-5.7s5.7,2.6,5.7,5.7S309,501.8,305.8,501.8z M305.8,491.2
			c-2.7,0-4.9,2.2-4.9,4.9s2.2,4.9,4.9,4.9s4.9-2.2,4.9-4.9S308.5,491.2,305.8,491.2z"/>
		<path class="st0" d="M322.5,501.8c-3.1,0-5.7-2.6-5.7-5.7s2.6-5.7,5.7-5.7c3.1,0,5.7,2.6,5.7,5.7S325.7,501.8,322.5,501.8z
			 M322.5,491.2c-2.7,0-4.9,2.2-4.9,4.9s2.2,4.9,4.9,4.9c2.7,0,4.9-2.2,4.9-4.9S325.2,491.2,322.5,491.2z"/>
		<path class="st0" d="M339.2,501.8c-3.1,0-5.7-2.6-5.7-5.7s2.6-5.7,5.7-5.7s5.7,2.6,5.7,5.7S342.3,501.8,339.2,501.8z M339.2,491.2
			c-2.7,0-4.9,2.2-4.9,4.9s2.2,4.9,4.9,4.9s4.9-2.2,4.9-4.9S341.9,491.2,339.2,491.2z"/>
		<path class="st0" d="M355.9,501.8c-3.1,0-5.7-2.6-5.7-5.7s2.6-5.7,5.7-5.7s5.7,2.6,5.7,5.7S359,501.8,355.9,501.8z M355.9,491.2
			c-2.7,0-4.9,2.2-4.9,4.9s2.2,4.9,4.9,4.9s4.9-2.2,4.9-4.9S358.6,491.2,355.9,491.2z"/>
		<path class="st0" d="M372.6,501.8c-3.1,0-5.7-2.6-5.7-5.7s2.6-5.7,5.7-5.7c3.1,0,5.7,2.6,5.7,5.7S375.7,501.8,372.6,501.8z
			 M372.6,491.2c-2.7,0-4.9,2.2-4.9,4.9s2.2,4.9,4.9,4.9c2.7,0,4.9-2.2,4.9-4.9S375.3,491.2,372.6,491.2z"/>
		<path class="st0" d="M389.3,501.8c-3.1,0-5.7-2.6-5.7-5.7s2.6-5.7,5.7-5.7c3.1,0,5.7,2.6,5.7,5.7S392.4,501.8,389.3,501.8z
			 M389.3,491.2c-2.7,0-4.9,2.2-4.9,4.9s2.2,4.9,4.9,4.9c2.7,0,4.9-2.2,4.9-4.9S392,491.2,389.3,491.2z"/>
		<path class="st0" d="M405.9,501.8c-3.1,0-5.7-2.6-5.7-5.7s2.6-5.7,5.7-5.7s5.7,2.6,5.7,5.7S409.1,501.8,405.9,501.8z M405.9,491.2
			c-2.7,0-4.9,2.2-4.9,4.9s2.2,4.9,4.9,4.9s4.9-2.2,4.9-4.9S408.6,491.2,405.9,491.2z"/>
	</g>
	<g>
		<path class="st0" d="M189.1,518.4c-3.1,0-5.7-2.6-5.7-5.7c0-3.1,2.6-5.7,5.7-5.7c3.1,0,5.7,2.6,5.7,5.7
			C194.7,515.9,192.2,518.4,189.1,518.4z M189.1,507.9c-2.7,0-4.9,2.2-4.9,4.9c0,2.7,2.2,4.9,4.9,4.9s4.9-2.2,4.9-4.9
			C193.9,510.1,191.7,507.9,189.1,507.9z"/>
		<path class="st0" d="M205.7,518.4c-3.1,0-5.7-2.6-5.7-5.7c0-3.1,2.6-5.7,5.7-5.7c3.1,0,5.7,2.6,5.7,5.7
			C211.4,515.9,208.9,518.4,205.7,518.4z M205.7,507.9c-2.7,0-4.9,2.2-4.9,4.9c0,2.7,2.2,4.9,4.9,4.9s4.9-2.2,4.9-4.9
			C210.6,510.1,208.4,507.9,205.7,507.9z"/>
		<path class="st0" d="M222.4,518.4c-3.1,0-5.7-2.6-5.7-5.7c0-3.1,2.6-5.7,5.7-5.7c3.1,0,5.7,2.6,5.7,5.7
			C228.1,515.9,225.6,518.4,222.4,518.4z M222.4,507.9c-2.7,0-4.9,2.2-4.9,4.9c0,2.7,2.2,4.9,4.9,4.9s4.9-2.2,4.9-4.9
			C227.3,510.1,225.1,507.9,222.4,507.9z"/>
		<path class="st0" d="M239.1,518.4c-3.1,0-5.7-2.6-5.7-5.7c0-3.1,2.6-5.7,5.7-5.7c3.1,0,5.7,2.6,5.7,5.7
			C244.8,515.9,242.2,518.4,239.1,518.4z M239.1,507.9c-2.7,0-4.9,2.2-4.9,4.9c0,2.7,2.2,4.9,4.9,4.9s4.9-2.2,4.9-4.9
			C244,510.1,241.8,507.9,239.1,507.9z"/>
		<path class="st0" d="M255.8,518.4c-3.1,0-5.7-2.6-5.7-5.7c0-3.1,2.6-5.7,5.7-5.7s5.7,2.6,5.7,5.7
			C261.5,515.9,258.9,518.4,255.8,518.4z M255.8,507.9c-2.7,0-4.9,2.2-4.9,4.9c0,2.7,2.2,4.9,4.9,4.9s4.9-2.2,4.9-4.9
			C260.7,510.1,258.5,507.9,255.8,507.9z"/>
		<path class="st0" d="M272.5,518.4c-3.1,0-5.7-2.6-5.7-5.7c0-3.1,2.6-5.7,5.7-5.7c3.1,0,5.7,2.6,5.7,5.7
			C278.2,515.9,275.6,518.4,272.5,518.4z M272.5,507.9c-2.7,0-4.9,2.2-4.9,4.9c0,2.7,2.2,4.9,4.9,4.9c2.7,0,4.9-2.2,4.9-4.9
			C277.4,510.1,275.2,507.9,272.5,507.9z"/>
		<path class="st0" d="M289.2,518.4c-3.1,0-5.7-2.6-5.7-5.7c0-3.1,2.6-5.7,5.7-5.7s5.7,2.6,5.7,5.7
			C294.8,515.9,292.3,518.4,289.2,518.4z M289.2,507.9c-2.7,0-4.9,2.2-4.9,4.9c0,2.7,2.2,4.9,4.9,4.9s4.9-2.2,4.9-4.9
			C294,510.1,291.9,507.9,289.2,507.9z"/>
		<path class="st0" d="M305.8,518.4c-3.1,0-5.7-2.6-5.7-5.7c0-3.1,2.6-5.7,5.7-5.7s5.7,2.6,5.7,5.7
			C311.5,515.9,309,518.4,305.8,518.4z M305.8,507.9c-2.7,0-4.9,2.2-4.9,4.9c0,2.7,2.2,4.9,4.9,4.9s4.9-2.2,4.9-4.9
			C310.7,510.1,308.5,507.9,305.8,507.9z"/>
		<path class="st0" d="M322.5,518.4c-3.1,0-5.7-2.6-5.7-5.7c0-3.1,2.6-5.7,5.7-5.7c3.1,0,5.7,2.6,5.7,5.7
			C328.2,515.9,325.7,518.4,322.5,518.4z M322.5,507.9c-2.7,0-4.9,2.2-4.9,4.9c0,2.7,2.2,4.9,4.9,4.9c2.7,0,4.9-2.2,4.9-4.9
			C327.4,510.1,325.2,507.9,322.5,507.9z"/>
		<path class="st0" d="M339.2,518.4c-3.1,0-5.7-2.6-5.7-5.7c0-3.1,2.6-5.7,5.7-5.7s5.7,2.6,5.7,5.7
			C344.9,515.9,342.3,518.4,339.2,518.4z M339.2,507.9c-2.7,0-4.9,2.2-4.9,4.9c0,2.7,2.2,4.9,4.9,4.9s4.9-2.2,4.9-4.9
			C344.1,510.1,341.9,507.9,339.2,507.9z"/>
		<path class="st0" d="M355.9,518.4c-3.1,0-5.7-2.6-5.7-5.7c0-3.1,2.6-5.7,5.7-5.7s5.7,2.6,5.7,5.7
			C361.6,515.9,359,518.4,355.9,518.4z M355.9,507.9c-2.7,0-4.9,2.2-4.9,4.9c0,2.7,2.2,4.9,4.9,4.9s4.9-2.2,4.9-4.9
			C360.8,510.1,358.6,507.9,355.9,507.9z"/>
		<path class="st0" d="M372.6,518.4c-3.1,0-5.7-2.6-5.7-5.7c0-3.1,2.6-5.7,5.7-5.7c3.1,0,5.7,2.6,5.7,5.7
			C378.3,515.9,375.7,518.4,372.6,518.4z M372.6,507.9c-2.7,0-4.9,2.2-4.9,4.9c0,2.7,2.2,4.9,4.9,4.9c2.7,0,4.9-2.2,4.9-4.9
			C377.5,510.1,375.3,507.9,372.6,507.9z"/>
		<path class="st0" d="M389.3,518.4c-3.1,0-5.7-2.6-5.7-5.7c0-3.1,2.6-5.7,5.7-5.7c3.1,0,5.7,2.6,5.7,5.7
			C394.9,515.9,392.4,518.4,389.3,518.4z M389.3,507.9c-2.7,0-4.9,2.2-4.9,4.9c0,2.7,2.2,4.9,4.9,4.9c2.7,0,4.9-2.2,4.9-4.9
			C394.1,510.1,392,507.9,389.3,507.9z"/>
		<path class="st0" d="M405.9,518.4c-3.1,0-5.7-2.6-5.7-5.7c0-3.1,2.6-5.7,5.7-5.7s5.7,2.6,5.7,5.7
			C411.6,515.9,409.1,518.4,405.9,518.4z M405.9,507.9c-2.7,0-4.9,2.2-4.9,4.9c0,2.7,2.2,4.9,4.9,4.9s4.9-2.2,4.9-4.9
			C410.8,510.1,408.6,507.9,405.9,507.9z"/>
	</g>
</g>
</svg>
