<svg width="39" height="8" viewBox="0 0 39 8" fill="none" xmlns="http://www.w3.org/2000/svg">
<path d="M1 3.5C0.723858 3.5 0.5 3.72386 0.5 4C0.5 4.27614 0.723858 4.5 1 4.5V3.5ZM38.3536 4.35355C38.5488 4.15829 38.5488 3.84171 38.3536 3.64645L35.1716 0.464466C34.9763 0.269204 34.6597 0.269204 34.4645 0.464466C34.2692 0.659728 34.2692 0.976311 34.4645 1.17157L37.2929 4L34.4645 6.82843C34.2692 7.02369 34.2692 7.34027 34.4645 7.53553C34.6597 7.7308 34.9763 7.7308 35.1716 7.53553L38.3536 4.35355ZM1 4.5H38V3.5H1V4.5Z" fill="#48808B"/>
</svg>
